<?xml version="1.0" encoding="utf-8"?>
<!-- Generator: Adobe Illustrator 19.0.0, SVG Export Plug-In . SVG Version: 6.00 Build 0)  -->
<svg version="1.1" id="Layer_1" xmlns="http://www.w3.org/2000/svg" xmlns:xlink="http://www.w3.org/1999/xlink" x="0px" y="0px"
	 viewBox="-187 278 237 237" style="enable-background:new -187 278 237 237;" xml:space="preserve">
<style type="text/css">
	.st0{fill:#FBE9A0;}
	.st1{fill:#FFFFFF;}
	.st2{fill:none;stroke:#6D6E70;stroke-width:2;stroke-miterlimit:10;}
	.st3{fill:none;stroke:#6D6E70;stroke-width:2;stroke-miterlimit:10;stroke-dasharray:2.0444,2.0444;}
	.st4{fill:none;stroke:#6D6E70;stroke-width:2;stroke-miterlimit:10;stroke-dasharray:2.0062,2.0062;}
	.st5{fill:none;stroke:#6D6E70;stroke-width:2;stroke-miterlimit:10;stroke-dasharray:2.0334,2.0334;}
	.st6{fill:none;stroke:#6D6E70;stroke-width:2;stroke-miterlimit:10;stroke-dasharray:2.0477,2.0477;}
	.st7{fill:none;stroke:#6D6E70;stroke-width:2;stroke-miterlimit:10;stroke-dasharray:1.9982,1.9982;}
	.st8{fill:none;stroke:#6D6E70;stroke-width:2;stroke-miterlimit:10;stroke-dasharray:2.0741,2.0741;}
	.st9{fill:none;stroke:#6D6E70;stroke-width:2;stroke-miterlimit:10;stroke-dasharray:2.255,2.255;}
	.st10{fill:none;stroke:#6D6E70;stroke-width:2;stroke-miterlimit:10;stroke-dasharray:2.0028,2.0028;}
	.st11{fill:#1B75BB;}
</style>
<circle id="circle_18_" class="st0" cx="-69" cy="396" r="118"/>
<path id="XMLID_14_" class="st1" d="M-74.1,328.8"/>
<g id="XMLID_62_">
	<g>
		<g>
			<path class="st2" d="M-34.1,430.2c-0.2-0.3-0.3-0.6-0.4-0.9c-0.3,0-0.7,0-1,0"/>
			<line class="st3" x1="-37.6" y1="429.3" x2="-97.9" y2="429.3"/>
			<path class="st2" d="M-98.9,429.3c-0.3,0-0.7,0-1,0c-0.1,0.3-0.3,0.6-0.4,0.9"/>
			<path class="st4" d="M-101.4,431.9c-4.5,7.1-12.4,11.7-21.2,11.7c-13.8,0-25-11.2-25-25c0-0.9,0-1.8,0.1-2.7"/>
			<path class="st2" d="M-147.3,414.9c0-0.3,0.1-0.7,0.2-1c-0.3-0.2-0.6-0.4-0.8-0.5"/>
			<path class="st5" d="M-149.7,412.3c-5-3.3-8-5.7-8.1-5.9l-0.9-0.7"/>
			<polyline class="st2" points="-159.5,405.1 -160.3,404.4 -160.3,403.4 			"/>
			<line class="st6" x1="-160.3" y1="401.4" x2="-160.3" y2="381.9"/>
			<polyline class="st2" points="-160.3,380.9 -160.3,379.9 -159.5,379.3 			"/>
			<path class="st7" d="M-157.9,378l29.7-23.5c1.6-1.4,8.9-6.9,22.4-6.9h36.8c3.2,0,14.1,0.4,19.7,5.5c7.3,6.6,19.4,17.7,25.1,23.3
				c28,0.7,44.8,11.7,45.6,12.2l1.4,0.9"/>
			<polyline class="st2" points="23.5,390.1 24.3,390.6 24.3,391.6 			"/>
			<line class="st8" x1="24.3" y1="393.7" x2="24.3" y2="413.4"/>
			<polyline class="st2" points="24.3,414.4 24.3,415.4 23.5,416 			"/>
			<path class="st9" d="M21.7,417.4L21.7,417.4c-0.5,0.4-2.6,2-6.9,3.8"/>
			<path class="st2" d="M13.8,421.7c-0.3,0.1-0.6,0.2-0.9,0.4c0,0.3-0.1,0.7-0.2,1"/>
			<path class="st10" d="M12.3,425c-2.8,10.7-12.6,18.7-24.2,18.7c-9.1,0-17.3-5-21.7-12.6"/>
		</g>
	</g>
</g>
<g>
	<path class="st11" d="M-27.1,383.2c-4.3-4.3-19.5-18.3-26.9-25c-2.5-2.3-8.7-3.7-15.1-3.7c-12.3,0-31.3,0-36.8,0
		c-12.3,0-18,5.3-18,5.3l-29.6,23.4v18.1c0,0,3.8,3.2,10.2,7.1c3.8-7.6,11.6-12.9,20.7-12.9c12.7,0,23.1,10.3,23.1,23.1
		c0,1.3-0.1,2.6-0.3,3.9c0.3,0,0.6,0,1,0c21.9,0,45.9,0,63,0c0.4,0,0.8,0,1.2,0c-0.2-1.3-0.3-2.6-0.3-3.9
		c0-12.7,10.3-23.1,23.1-23.1c11.7,0,21.4,8.7,22.9,20c4.6-1.9,6.6-3.4,6.6-3.4v-17.9C17.5,394.2,0.8,383.2-27.1,383.2z
		 M-94.9,383.2h-34.2c0,0,9.7-23.6,20.6-23.6s13.5,0,13.5,0V383.2z M-91.2,383.2v-23.6c0,0,14.5,0,25.5,0s26.2,23.6,26.2,23.6H-91.2
		z"/>
	<path class="st11" d="M-122.6,400.3c-10.1,0-18.3,8.2-18.3,18.3s8.2,18.3,18.3,18.3s18.3-8.2,18.3-18.3S-112.5,400.3-122.6,400.3z
		 M-122.6,429.2c-5.9,0-10.6-4.7-10.6-10.6s4.7-10.6,10.6-10.6s10.6,4.7,10.6,10.6S-116.7,429.2-122.6,429.2z"/>
	<path class="st11" d="M-11.9,400.3c-10.1,0-18.3,8.2-18.3,18.3s8.2,18.3,18.3,18.3c10.1,0,18.3-8.2,18.3-18.3
		S-1.9,400.3-11.9,400.3z M-11.9,429.2c-5.9,0-10.6-4.7-10.6-10.6s4.7-10.6,10.6-10.6c5.9,0,10.6,4.7,10.6,10.6
		S-6.1,429.2-11.9,429.2z"/>
</g>
</svg>
