<?xml version="1.0" encoding="utf-8"?>
<svg version="1.1" id="Layer_1" xmlns="http://www.w3.org/2000/svg" xmlns:xlink="http://www.w3.org/1999/xlink" x="0px" y="0px"
	 viewBox="0 0 121.9 66" style="enable-background:new 0 0 121.9 66;" xml:space="preserve">
<style type="text/css">
	.st0{fill:#BDE6F1;}
</style>
<g id="small">
	<path id="XMLID_51_" class="st0" d="M41.4,30.6c-0.3-1.4-1.7-2.3-3.1-1.9L2,37c-1.4,0.3-2.3,1.7-1.9,3.1c0.3,1.2,1.3,2,2.5,2
		c0.2,0,0.4,0,0.6-0.1l10.4-2.4v23.5c0,1.5,1.2,2.7,2.7,2.7s2.7-1.2,2.7-2.7v-13h2.8v13c0,1.5,1.2,2.7,2.7,2.7
		c1.5,0,2.7-1.2,2.7-2.7V36.6l12.4-2.8C40.8,33.4,41.7,32,41.4,30.6z"/>
	<ellipse id="XMLID_50_" class="st0" cx="19.2" cy="23" rx="5.9" ry="5.8"/>
</g>
<g id="large">
	<path id="XMLID_49_" class="st0" d="M121.8,12.2c-0.3-1.4-1.7-2.3-3.1-1.9L74.2,20.5c-1.4,0.3-2.3,1.7-1.9,3.1c0.3,1.2,1.3,2,2.5,2
		c0.2,0,0.4,0,0.6-0.1L86.1,23v40.1c0,1.5,1.2,2.7,2.7,2.7c1.5,0,2.7-1.2,2.7-2.7V41.9h3.5v21.2c0,1.5,1.2,2.7,2.7,2.7
		s2.7-1.2,2.7-2.7V19.8l19.6-4.5C121.2,15,122.1,13.6,121.8,12.2z"/>
	<circle id="XMLID_48_" class="st0" cx="92.7" cy="6.1" r="5.9"/>
</g>
<g id="medium">
	<ellipse id="XMLID_47_" class="st0" cx="56" cy="14.6" rx="5.9" ry="5.8"/>
	<path id="XMLID_1_" class="st0" d="M77.3,22.4c-0.3-1.4-1.7-2.3-3.1-1.9l-35.9,8.2c-1.4,0.3-2.3,1.7-1.9,3.1c0.3,1.2,1.3,2,2.5,2
		c0.2,0,0.4,0,0.6-0.1l10.4-2.4v31.8c0,1.5,1.2,2.7,2.7,2.7c1.5,0,2.7-1.2,2.7-2.7V46h3.1v17.1c0,1.5,1.2,2.7,2.7,2.7
		c1.5,0,2.7-1.2,2.7-2.7V28.2l11.7-2.7C76.7,25.2,77.6,23.8,77.3,22.4z"/>
</g>
</svg>
