<?xml version="1.0" encoding="utf-8"?>
<!-- Generator: Adobe Illustrator 19.0.0, SVG Export Plug-In . SVG Version: 6.00 Build 0)  -->
<svg version="1.1" id="Layer_1" xmlns="http://www.w3.org/2000/svg" xmlns:xlink="http://www.w3.org/1999/xlink" x="0px" y="0px"
	 viewBox="-187 278 237 237" style="enable-background:new -187 278 237 237;" xml:space="preserve">
<style type="text/css">
	.st0{display:none;}
	.st1{display:inline;fill:#FFECA4;}
	.st2{display:inline;}
	.st3{fill:#51BAAC;}
	.st4{fill:#F05A28;}
	.st5{display:inline;fill:#1A7590;}
	.st6{display:inline;fill:#55C9EC;}
	.st7{display:inline;fill:#F1B147;}
	.st8{display:inline;fill:#FFFFFF;}
	.st9{display:inline;fill:#FED208;}
	.st10{display:inline;fill:#57B948;}
	.st11{display:inline;fill:#D1D3D4;}
	.st12{display:inline;fill:#6D6E71;}
	.st13{fill:#FFFFFF;}
	.st14{display:inline;fill:#F05A28;}
	.st15{display:inline;fill:#FFF100;}
	.st16{display:inline;fill:#009369;}
	.st17{display:inline;fill:#1F537F;}
	.st18{fill:#F1B147;}
	.st19{display:inline;fill:#754B1E;}
	.st20{display:inline;fill:#875D25;}
	.st21{display:inline;fill:#FCC37E;}
	.st22{fill:#C1E8FA;}
	.st23{fill:#754B1E;}
	.st24{display:inline;fill:#D57841;}
	.st25{fill:#868686;}
	.st26{fill:#0C6E63;}
	.st27{display:inline;fill:#51BAAC;}
	.st28{display:inline;fill:#BDE6F1;}
	.st29{fill:#231F20;}
	.st30{display:inline;fill:#EC1C24;}
	.st31{fill:#D57841;}
	.st32{display:inline;fill:#231F20;}
	.st33{display:inline;fill:#808184;}
	.st34{fill:#EC1C24;}
	.st35{fill:#808184;}
	.st36{fill:#BDE6F1;}
	.st37{fill:#009369;}
	.st38{fill:#FED208;}
	.st39{display:inline;fill:#B2A09F;}
	.st40{display:inline;fill:#998F8F;}
	.st41{display:inline;fill:#BFB0AF;}
	.st42{display:inline;fill:#7C7878;}
	.st43{display:inline;fill:#CCC1C0;}
	.st44{display:inline;fill:#DBD3D2;}
	.st45{display:inline;fill:#EBE6E5;}
	.st46{display:inline;fill:#838383;}
	.st47{fill:#BFB0AF;stroke:#BFB0AF;stroke-miterlimit:10;}
	.st48{fill:#EBE6E5;}
	.st49{fill:#FFECA4;}
	.st50{fill:#F58B43;}
	.st51{fill:none;stroke:#FFFFFF;stroke-width:3;stroke-linecap:round;stroke-linejoin:round;stroke-miterlimit:10;}
	.st52{fill:none;stroke:#FFF100;stroke-width:2;stroke-linecap:round;stroke-linejoin:round;stroke-miterlimit:10;}
</style>
<g id="default" class="st0">
	<circle id="circle_7_" class="st1" cx="-68.5" cy="396.5" r="118"/>
	<g class="st2">
		<path class="st3" d="M33,397.3c-1.4-2.4-4.5-3.3-7-1.9l-27.6,15.9l0,0c-0.7,0.4-1.3,0.3-1.7,0.2c-0.3-0.1-0.9-0.3-1.3-1
			c-0.6-1-0.2-2.4,0.8-3l31.4-18.1c2.4-1.4,3.3-4.5,1.9-7c-1.4-2.4-4.5-3.3-7-1.9l-31.4,18.1c0,0,0,0,0,0c0,0,0,0,0,0l-2.5,1.5
			c-1,0.6-2.4,0.2-3-0.8c-0.6-1-0.2-2.4,0.8-3c0.1-0.1,0.2-0.2,0.3-0.2L11.3,382c2.4-1.4,3.3-4.5,1.9-7c-1.4-2.4-4.5-3.3-7-1.9
			l-28.4,16.4c0.9-5.8-0.1-11.9-3.3-17.4c-1.4-2.4-4.5-3.3-7-1.9c-2.4,1.4-3.3,4.5-1.9,7c4.6,8,1.9,18.2-6.1,22.9l0,0
			c-0.2,0.1-0.5,0.3-0.7,0.5c-12.3,7.6-16.5,23.7-9.2,36.3c5,8.6,14.1,13.5,23.4,13.5c4.6,0,9.2-1.2,13.4-3.6L7,434.9l0,0l0,0
			l17.4-10c2.4-1.4,3.3-4.5,1.9-7c-1.4-2.4-4.5-3.3-7-1.9l-17.4,10c-0.7,0.4-1.3,0.3-1.7,0.2c-0.3-0.1-0.9-0.3-1.3-1
			c-0.6-1-0.2-2.4,0.8-3l31.4-18.1C33.6,402.8,34.4,399.7,33,397.3z"/>
		<path class="st3" d="M-168.3,404.2l31.4,18.1c1,0.6,1.4,1.9,0.8,3c-0.4,0.7-1,0.9-1.3,1c-0.3,0.1-1,0.2-1.7-0.2l-17.4-10
			c-2.4-1.4-5.6-0.6-7,1.9c-1.4,2.4-0.6,5.6,1.9,7l17.4,10l0,0l0,0l20.5,11.8c4.2,2.4,8.9,3.6,13.4,3.6c9.3,0,18.4-4.8,23.4-13.5
			c7.3-12.6,3.1-28.7-9.2-36.3c-0.2-0.2-0.4-0.3-0.7-0.5l0,0c-8-4.6-10.7-14.9-6.1-22.9c1.4-2.4,0.6-5.6-1.9-7
			c-2.4-1.4-5.6-0.6-7,1.9c-3.2,5.5-4.2,11.6-3.3,17.4l-28.4-16.4c-2.4-1.4-5.6-0.6-7,1.9c-1.4,2.4-0.6,5.6,1.9,7l24.6,14.2
			c0.1,0.1,0.2,0.2,0.3,0.2c1,0.6,1.4,1.9,0.8,3c-0.6,1-1.9,1.4-3,0.8l-2.5-1.5c0,0,0,0,0,0c0,0,0,0,0,0l-31.4-18.1
			c-2.4-1.4-5.6-0.6-7,1.9c-1.4,2.4-0.6,5.6,1.9,7l31.4,18.1c1,0.6,1.4,1.9,0.8,3c-0.4,0.7-1,0.9-1.3,1c-0.3,0.1-1,0.2-1.7-0.2
			c0,0,0,0,0,0l-27.6-15.9c-2.4-1.4-5.6-0.6-7,1.9C-171.6,399.7-170.7,402.8-168.3,404.2z"/>
	</g>
	<g class="st2">
		<path class="st4" d="M-68.6,416c0-4.9-22.9-22.9-22.9-22.9c-4.8-4.8-4.8-12.6,0-17.4c4.8-4.8,12.6-4.8,17.4,0l5.6,5.6l5.6-5.6
			c4.8-4.8,12.6-4.8,17.4,0c4.8,4.8,4.8,12.6,0,17.4C-45.7,393.1-68.6,411.1-68.6,416z"/>
	</g>
</g>
<g id="descoperaLumea" class="st0">
	<circle id="circle_2_" class="st1" cx="-68.5" cy="396.5" r="118"/>
	<path class="st5" d="M-27.2,435.8c14.8,0,24.1,10.1,24.1,10.1c5.6,6.1,12.2,5.7,14.7-0.9c0,0,0,0,0-6.8c0-22.1-17.4-39.9-38.8-39.9
		S-66,416.2-66,438.2c0,6.8,0,6.8,0,6.8c2.5,6.6,9.1,7,14.7,0.9C-51.3,445.9-42,435.8-27.2,435.8z"/>
	<path class="st6" d="M-6.6,359.2c-6.4,1.6-13.3,2.5-20.6,2.5c-7.3,0-14.2-0.9-20.5-2.5c0,0,0,0,0,0c-2.3,7.7-3.7,16.8-3.7,26.4
		v60.3h48.5v-60.3C-2.9,375.9-4.3,366.8-6.6,359.2z"/>
	<circle class="st7" cx="-27.2" cy="395.9" r="17.5"/>
	<circle class="st8" cx="-27.2" cy="395.9" r="11.1"/>
	<path class="st9" d="M-27.2,357.6c6.9,0,13.4-1.1,19.1-3c-4.4-11.7-11.3-19.2-19.1-19.2c-7.7,0-14.5,7.6-19,19.2
		C-40.5,356.6-34,357.6-27.2,357.6z"/>
	<path class="st10" d="M-8.3,354c0,0,0,0.1,0,0.1C-8.3,354.1-8.3,354-8.3,354z"/>
	<path class="st10" d="M-8.1,354.6c-5.7,1.9-12.2,3-19.1,3c-6.9,0-13.3-1.1-19-3c-0.6,1.5-1.1,3-1.6,4.5c6.3,1.6,13.2,2.5,20.5,2.5
		c7.3,0,14.3-0.9,20.6-2.5C-7,357.6-7.5,356.1-8.1,354.6z"/>
	<path id="_x3C_Path_x3E__1_" class="st11" d="M-103.5,375.4c-15.6,0-28.2,16.8-28.2,37.5s12.6,37.5,28.2,37.5s28.2-16.8,28.2-37.5
		C-75.4,392.2-88,375.4-103.5,375.4z M-110.2,419.7c-1.1-1.9-1.8-4.3-1.8-6.9c0-2.6,0.7-5,1.8-6.9c1.1,1.9,1.8,4.3,1.8,6.9
		C-108.4,415.4-109.1,417.8-110.2,419.7z"/>
	<path class="st12" d="M-131.7,412.9c0-20.7,12.6-37.5,28.2-37.5h-11.6v0.1c-0.5,0-1.1-0.1-1.6-0.1c-15.6,0-28.2,16.8-28.2,37.5
		s12.6,37.5,28.2,37.5c0.5,0,1.1,0,1.6-0.1v0.1h11.6C-119.1,450.3-131.7,433.5-131.7,412.9z"/>
	<path class="st8" d="M-69.8,354.7l5.1-5.1c2.3-2.3,2.3-6.1,0-8.5c-2.3-2.3-6.1-2.3-8.5,0l-7.6,7.6h-54.7l-7.6-7.6
		c-2.3-2.3-6.1-2.3-8.5,0c-2.3,2.3-2.3,6.1,0,8.5l5.1,5.1l-5.1,5.1c-2.3,2.3-2.3,6.1,0,8.5c1.2,1.2,2.7,1.8,4.2,1.8s3.1-0.6,4.2-1.8
		l7.6-7.6h54.7l7.6,7.6c1.2,1.2,2.7,1.8,4.2,1.8c1.5,0,3.1-0.6,4.2-1.8c2.3-2.3,2.3-6.1,0-8.5L-69.8,354.7z"/>
	<path class="st12" d="M-103.5,401.7c-2.7,0-5.1,1.7-6.6,4.3c1.1,1.9,1.8,4.3,1.8,6.8s-0.7,5-1.8,6.8c1.5,2.6,3.9,4.3,6.6,4.3
		c4.6,0,8.4-5,8.4-11.2C-95.1,406.7-98.9,401.7-103.5,401.7z"/>
</g>
<g id="atelierulDeIerburi" class="st0">
	<circle id="circle_4_" class="st1" cx="-68.5" cy="396.5" r="118"/>
	<path class="st10" d="M-52.4,395.2c-6.4-28.7-34-56.7-54.5-56.7c0,0,0,0,0,0c0,0,0,0,0,0c-20.5,0-48.1,28-54.5,56.7
		c-4.6,20.6,1.7,44.6,29.2,44.6c26.8,0,16.8-24.4,25.3-24.4c0,0,0,0,0,0c0,0,0,0,0,0c8.5,0-1.5,24.4,25.3,24.4
		C-54,439.8-47.8,415.7-52.4,395.2z"/>
	<path id="_x3C_Path_x3E_" class="st9" d="M20.9,383.9c-2.1-3.6-5.4-6.1-9.1-7.2c0.9-3.9,0.3-8-1.7-11.5C8,361.6,4.7,359.1,1,358
		c0.9-3.8,0.4-7.9-1.7-11.5c-2.1-3.6-5.5-6.3-9.6-7.4c-4.1-1.1-8.3-0.5-12,1.6l-3.7,2.1l-2.4-1.8c-0.2-0.1-0.3-0.2-0.5-0.3
		c-3.6-2.1-7.9-2.7-12-1.6c-4.1,1.1-7.5,3.7-9.6,7.4c-2,3.5-2.6,7.6-1.7,11.5c-3.9,1.2-7.1,3.7-9.1,7.2c-2,3.5-2.6,7.6-1.7,11.5
		c-3.7,1.1-7,3.6-9.1,7.2c-4.3,7.5-1.8,17.2,5.8,21.6l34.5,19.9c0.1,0.1,0.2,0.1,0.3,0.2v26.6c0,2.8,2.2,5,5,5s5-2.2,5-5V426
		c0.6-0.1,1.2-0.3,1.8-0.6l34.5-19.9C22.7,401.1,25.2,391.4,20.9,383.9z M-0.7,378.1L-21.2,390v-13.3l14.8-8.6
		c2.8-1.6,6.3-0.6,7.9,2.1C3.1,372.9,2.1,376.5-0.7,378.1z M-21.2,351.7l4-2.3c1.3-0.8,2.9-1,4.4-0.6c1.5,0.4,2.7,1.4,3.5,2.7
		s1,2.9,0.6,4.4c-0.4,1.5-1.4,2.7-2.7,3.5l-9.8,5.7V351.7z M-41.6,351.5c0.8-1.3,2-2.3,3.5-2.7c1.4-0.4,2.9-0.2,4.2,0.5l2.7,2.1
		v12.9l-8.3-4.8c-1.3-0.8-2.3-2-2.7-3.5S-42.4,352.9-41.6,351.5z M-52.4,370.2c0.8-1.3,2-2.3,3.5-2.7c1.5-0.4,3-0.2,4.4,0.6
		l13.3,7.7v13.3l-19.1-11C-53.1,376.5-54,372.9-52.4,370.2z M-61.1,396.7c-2.8-1.6-3.7-5.1-2.1-7.9c0.8-1.3,2-2.3,3.5-2.7
		c1.5-0.4,3-0.2,4.4,0.6l24.1,13.9V414L-61.1,396.7z M10.1,396.7l-31.4,18.1v-13.4c0.1-0.1,0.3-0.1,0.4-0.2l25.2-14.5
		c1.3-0.8,2.9-1,4.4-0.6c1.5,0.4,2.7,1.4,3.5,2.7C13.8,391.6,12.9,395.2,10.1,396.7z"/>
	<path class="st8" d="M-57.2,440.6c5.3,0,10-2.2,13.5-5.7c-3.4-3.5-8.2-5.7-13.5-5.7c3.7-3.8,5.5-8.7,5.5-13.6
		c-4.9,0-9.8,1.8-13.6,5.5c0-5.3-2.2-10-5.7-13.5c-3.5,3.4-5.7,8.2-5.7,13.5c-3.8-3.7-8.7-5.5-13.6-5.5c0,4.9,1.8,9.8,5.5,13.6
		c-5.3,0-10,2.2-13.5,5.7c3.4,3.5,8.2,5.7,13.5,5.7c-3.7,3.8-5.5,8.7-5.5,13.6c4.9,0,9.8-1.8,13.6-5.5c0,5.3,2.2,10,5.7,13.5
		c3.5-3.4,5.7-8.2,5.7-13.5c3.8,3.7,8.7,5.5,13.6,5.5C-51.7,449.2-53.5,444.3-57.2,440.6z"/>
	<path class="st9" d="M-62.7,438.3c3.2,0,6-1.3,8-3.4c-2.1-2.1-4.9-3.4-8-3.4c2.2-2.2,3.3-5.2,3.3-8.1c-2.9,0-5.9,1.1-8.1,3.3
		c0-3.2-1.3-6-3.4-8c-2.1,2-3.4,4.9-3.4,8c-2.2-2.2-5.2-3.3-8.1-3.3c0,2.9,1.1,5.9,3.3,8.1c-3.2,0-6,1.3-8,3.4
		c2.1,2.1,4.9,3.4,8,3.4c-2.2,2.2-3.3,5.2-3.3,8.1c2.9,0,5.9-1.1,8.1-3.3c0,3.2,1.3,6,3.4,8c2.1-2.1,3.4-4.9,3.4-8
		c2.2,2.2,5.2,3.3,8.1,3.3C-59.4,443.4-60.5,440.5-62.7,438.3z"/>
</g>
<g id="sah" class="st0">
	<circle id="circle_5_" class="st1" cx="-68.5" cy="396.5" r="118"/>
	<g class="st2">
		<path class="st13" d="M-4.6,436.3h0.7c-3.1,0-8.5-4.7-11.8-16.1c2.7-1.6,4.6-4.5,4.6-7.9h-6.3c-0.8-4.8-1.3-10.3-1.3-16.8v-25.7
			h5.2c2.8,0,5-2.2,5-5c0-2.8-2.2-5-5-5h-26.1c-2.8,0-5,2.2-5,5c0,2.8,2.2,5,5,5h5.2v25.7c0,6.5-0.5,12-1.3,16.8h-6.3
			c0,3.4,1.8,6.3,4.6,7.9c-3.3,11.4-8.7,16.1-11.8,16.1h0.7c-7.6,0-13.8,6.2-13.8,13.8H9.2C9.2,442.4,3,436.3-4.6,436.3z"/>
	</g>
	<g class="st2">
		<path class="st13" d="M-32.6,350.3c0.7,1.9,2.6,3.2,4.7,3.2h2.6c2.1,0,3.9-1.3,4.7-3.2l4.5-11.7c0.6-1.5,0.4-3.3-0.6-4.6
			c-0.9-1.4-2.5-2.2-4.1-2.2h-0.1c0.6-1,0.9-2.1,0.9-3.3c0-3.6-2.9-6.6-6.6-6.6s-6.6,2.9-6.6,6.6c0,1.2,0.3,2.3,0.9,3.3h-0.1
			c-1.6,0-3.2,0.8-4.1,2.2c-0.9,1.4-1.1,3.1-0.6,4.6L-32.6,350.3z"/>
	</g>
	<rect x="-131.2" y="370.2" class="st2" width="20.1" height="20.1"/>
	<rect x="-131.2" y="410.5" class="st2" width="20.1" height="20.1"/>
	<rect x="-151.3" y="350.1" class="st2" width="20.1" height="20.1"/>
	<rect x="-151.3" y="430.6" class="st2" width="20.1" height="20.1"/>
	<rect x="-151.3" y="390.3" class="st2" width="20.1" height="20.1"/>
	<path class="st2" d="M-53.3,436.3h0.7h0.5c0-6.1-4-11.3-9.5-13.1c-1.7-6.4-2.9-15.5-2.9-27.7v-7.9h-21.7v7.9
		c0,12.2-1.2,21.3-2.9,27.7c-5.5,1.8-9.5,7-9.5,13.1h0.5h0.7c-7.6,0-13.8,6.2-13.8,13.8h71.6C-39.5,442.4-45.7,436.3-53.3,436.3z"/>
	<path class="st2" d="M-83.3,381.5h15.9c9.2,0,16.7-7.5,16.7-16.7v-12.2c0-2.5-2-4.5-4.5-4.5s-4.5,2-4.5,4.5c0,3.1-2.5,5.6-5.6,5.6
		s-5.6-2.5-5.6-5.6c0-2.5-2-4.5-4.5-4.5s-4.5,2-4.5,4.5c0,3.1-2.5,5.6-5.6,5.6s-5.6-2.5-5.6-5.6c0-2.5-2-4.5-4.5-4.5s-4.5,2-4.5,4.5
		v12.2C-100,374-92.5,381.5-83.3,381.5z"/>
</g>
<g id="lumeaCulorilor" class="st0">
	<circle id="circle_3_" class="st1" cx="-68.5" cy="396.5" r="118"/>
	<path class="st14" d="M-44.2,350.7v50h50C5.8,373-16.6,350.7-44.2,350.7z"/>
	<path class="st10" d="M-44.2,450.7l9.9-50h-59.9C-94.2,428.3-71.9,450.7-44.2,450.7z"/>
	<path class="st15" d="M5.8,400.7h-50v50C-16.6,450.7,5.8,428.3,5.8,400.7z"/>
	<path class="st6" d="M-94.2,400.7h50v-50C-71.9,350.7-94.2,373-94.2,400.7z"/>
	<path class="st8" d="M-31.2,387.6c-0.2-0.2-0.3-0.3-0.5-0.4c-7.3-6.8-18.6-6.7-25.7,0.4l-84.8,74.8c-4.9,4.9-1.7,10.5,8,2.7
		c5.1-4.1,6.9-5.8,14-11.5c6.7-5.4,17.8-5.1,28-5.1c26.6,0,37.5-11.3,37.5-11.3l21.4-21.4c15.9-15.9,37.6-9.6,37.6-15.2
		C4.3,394.9-18.3,400.4-31.2,387.6z"/>
	<path class="st10" d="M-61,426.4c9.2-6,10.4-17.3,2.6-25l-43.7-43.7c-7.8-7.8-11.3-5.6-7.9,4.9l19.6,59.8
		c3.4,10.5,13.8,14.1,23,8.1L-61,426.4z"/>
	<circle class="st14" cx="-44.2" cy="400.7" r="7.8"/>
</g>
<g id="lego" class="st0">
	<circle id="circle_1_" class="st1" cx="-68.5" cy="396.5" r="118"/>
	<rect x="-136.5" y="405" class="st16" width="19" height="7.6"/>
	<rect x="-146.2" y="412.6" class="st10" width="38.4" height="38.1"/>
	<rect x="-146.2" y="412.6" class="st10" width="76.9" height="38.1"/>
	<rect x="-98.1" y="366.9" class="st7" width="19" height="7.6"/>
	<rect x="-59.6" y="366.9" class="st7" width="19" height="7.6"/>
	<rect x="-69" y="374.7" class="st17" width="76.1" height="76.1"/>
	<circle class="st6" cx="-11.3" cy="394.6" r="9.5"/>
	<circle class="st6" cx="-49.7" cy="430.9" r="9.5"/>
	<circle class="st6" cx="-11.3" cy="430.9" r="9.5"/>
	<rect x="-107.8" y="374.5" class="st15" width="76.9" height="38.1"/>
</g>
<g id="legoKing" class="st0">
	<circle id="circle_6_" class="st1" cx="-68.5" cy="396.5" r="118"/>
	<rect x="-136.5" y="405" class="st16" width="19" height="7.6"/>
	<rect x="-146.2" y="412.6" class="st10" width="38.4" height="38.1"/>
	<rect x="-146.2" y="412.6" class="st10" width="76.9" height="38.1"/>
	<rect x="-98.1" y="366.9" class="st7" width="19" height="7.6"/>
	<rect x="-59.6" y="366.9" class="st7" width="19" height="7.6"/>
	<rect x="-69" y="374.7" class="st17" width="76.1" height="76.1"/>
	<circle class="st6" cx="-11.3" cy="394.6" r="9.5"/>
	<circle class="st6" cx="-49.7" cy="430.9" r="9.5"/>
	<circle class="st6" cx="-11.3" cy="430.9" r="9.5"/>
	<rect x="-107.8" y="374.5" class="st15" width="76.9" height="38.1"/>
</g>
<g id="iDidThis" class="st0">
	<circle id="circle_8_" class="st1" cx="-68.5" cy="396.5" r="118"/>
	<rect x="-19.4" y="376.5" class="st6" width="27.8" height="74.8"/>
	<rect x="-12.5" y="376.5" class="st5" width="14" height="74.8"/>
	<path class="st9" d="M-56.5,433.4l-17.2-17.2l-73.3-73.3v108.3h108.3L-56.5,433.4z M-122.8,427v-25.8L-97,427H-122.8z"/>
	<path class="st6" d="M-38.7,364.8c0-9.6-5.2-17.9-12.9-22.4v23.4l-12.9,7.5l-12.9-7.5v-23.4c-7.7,4.5-12.9,12.8-12.9,22.4
		s5.2,17.9,12.9,22.4v47.6l12.9,7.5l12.9-7.5v-47.6C-43.9,382.8-38.7,374.4-38.7,364.8z M-64.6,431.7c-3.6,0-6.5-2.9-6.5-6.5
		c0-3.6,2.9-6.5,6.5-6.5c3.6,0,6.5,2.9,6.5,6.5C-58.1,428.8-61,431.7-64.6,431.7z"/>
	<path class="st7" d="M8.4,376.5l-13.9-33.6l-13.9,33.6c0,3.9,1.6,7,3.5,7c1.9,0,3.4-3,3.5-6.7c0.1,3.7,3.2,6.7,7,6.7
		c3.9,0,7-3.1,7-7l0,0c0,3.9,1.5,7,3.4,7C6.8,383.5,8.3,380.4,8.4,376.5L8.4,376.5z"/>
	<path class="st6" d="M-5.5,365.3c3,0,5.9-0.6,8.5-1.7l-8.5-20.7l-8.5,20.7C-11.4,364.7-8.5,365.3-5.5,365.3z"/>
	<g class="st2">
		<rect x="-147" y="367.7" class="st18" width="15" height="7"/>
	</g>
	<g class="st2">
		<rect x="-147" y="381.3" class="st18" width="15" height="7"/>
	</g>
	<g class="st2">
		<rect x="-147" y="394.9" class="st18" width="15" height="7"/>
	</g>
	<g class="st2">
		<rect x="-147" y="408.5" class="st18" width="15" height="7"/>
	</g>
	<g class="st2">
		<rect x="-147" y="422.1" class="st18" width="15" height="7"/>
	</g>
	<g class="st2">
		<rect x="-147" y="435.7" class="st18" width="15" height="7"/>
	</g>
</g>
<g id="lemnHandMade" class="st0">
	<circle id="circle_9_" class="st1" cx="-68.5" cy="396.5" r="118"/>
	<path class="st19" d="M-36.1,381.9h-67.9v68.4h67.9c18.9,0,34.2-15.3,34.2-34.2S-17.2,381.9-36.1,381.9z"/>
	<circle class="st20" cx="-103.9" cy="416.1" r="34.2"/>
	<circle class="st21" cx="-103.9" cy="416.1" r="26.9"/>
	<circle class="st20" cx="-103.9" cy="416.1" r="21.2"/>
	<circle class="st21" cx="-103.9" cy="416.1" r="16.6"/>
	<circle class="st20" cx="-103.9" cy="416.1" r="10.9"/>
	<circle class="st21" cx="-103.9" cy="416.1" r="6.1"/>
	<g class="st2">
		<polygon class="st22" points="3.8,363.9 -64.8,321.6 -84.4,370.8 -81.4,379.1 -74.3,373.8 -74.3,373.9 -71.3,382.1 -64.2,376.9 
			-64.2,376.9 -61.2,385.1 -54.1,379.9 -51.1,388.1 -44.1,382.9 -44,382.9 -41,391.2 -34,386 -33.9,386 -30.9,394.2 -23.8,389 
			-23.8,389 -20.8,397.2 -13.7,392 -13.5,392.1 		"/>
		<path class="st23" d="M-83.1,325.6l2.2,1.4L-92,354.7l-7.6-2.5L-83.1,325.6 M-87.4,307.7l-32,51.8l34.9,11.3l19.7-49.2
			L-87.4,307.7L-87.4,307.7z"/>
		<polygon class="st13" points="-76,369.6 -60.5,330.7 -6.2,364.2 -56.3,340.5 		"/>
	</g>
</g>
<g id="actorieSociodrama" class="st0">
	<circle id="circle_10_" class="st1" cx="-68.5" cy="396.5" r="118"/>
	<g class="st2">
		<path class="st13" d="M37.7,444.2c-2.8,0-5-2.2-5-5c0-3.9-1.6-5.2-2.7-5.9c-4.4-2.4-14.9-0.7-28.4,8.4c-2.3,1.5-5.4,0.9-6.9-1.4
			c-1.5-2.3-0.9-5.4,1.4-6.9c15.3-10.3,29.8-13.7,38.7-8.9c5.2,2.8,8,8,8,14.7C42.7,441.9,40.4,444.2,37.7,444.2z"/>
	</g>
	<path class="st9" d="M-74.7,428.3L-74.7,428.3l-80.1-60.7v67.9c0,8.4,19.1,15.1,42.6,15.1c23.5,0,42.6-6.8,42.6-15.1
		C-69.6,432.9-71.4,430.5-74.7,428.3z"/>
	<path class="st14" d="M-149.7,428.3L-149.7,428.3c-3.2,2.1-5.1,4.6-5.1,7.2c0,8.4,19.1,15.1,42.6,15.1c23.5,0,42.6-6.8,42.6-15.1
		v-67.9L-149.7,428.3z"/>
	<path class="st24" d="M-13.9,360.6c-23,0-41.6,18.6-41.6,41.6c0,23,18.6,41.6,41.6,41.6s41.6-18.6,41.6-41.6
		C27.7,379.2,9.1,360.6-13.9,360.6z M-13.9,365.3c6.8,0,12.3,5.5,12.3,12.3c0,6.8-5.5,12.3-12.3,12.3s-12.3-5.5-12.3-12.3
		C-26.2,370.8-20.7,365.3-13.9,365.3z M-5.9,402.2c0,4.5-3.6,8.1-8.1,8.1s-8.1-3.6-8.1-8.1c0-4.5,3.6-8.1,8.1-8.1
		S-5.9,397.8-5.9,402.2z M-38.5,414.5c-6.8,0-12.3-5.5-12.3-12.3c0-6.8,5.5-12.3,12.3-12.3s12.3,5.5,12.3,12.3
		C-26.2,409-31.7,414.5-38.5,414.5z M-13.9,439.2c-6.8,0-12.3-5.5-12.3-12.3c0-6.8,5.5-12.3,12.3-12.3s12.3,5.5,12.3,12.3
		C-1.6,433.7-7.1,439.2-13.9,439.2z M10.7,414.5c-6.8,0-12.3-5.5-12.3-12.3c0-6.8,5.5-12.3,12.3-12.3S23,395.4,23,402.2
		C23,409,17.5,414.5,10.7,414.5z"/>
	<path class="st15" d="M-74.7,428.3l-37.5-28.4l-37.5,28.4l0,0c-3.2,2.1-5.1,4.6-5.1,7.2c0,8.4,19.1,15.1,42.6,15.1
		c23.5,0,42.6-6.8,42.6-15.1C-69.6,432.9-71.4,430.5-74.7,428.3z"/>
	<ellipse class="st8" cx="-112.2" cy="436.5" rx="42.6" ry="15.1"/>
</g>
<g id="_literaturaRomana" class="st0">
	<circle id="circle_11_" class="st1" cx="-68.5" cy="396.5" r="118"/>
	<path class="st7" d="M17.7,357H-8.2c-2.8,0-5,2.2-5,5v84.4c0,2.8,2.2,5,5,5h25.9c2.8,0,5-2.2,5-5V362C22.7,359.2,20.4,357,17.7,357
		z"/>
	<rect x="-5.8" y="372" class="st9" width="21" height="9.8"/>
	<rect x="-5.8" y="426.5" class="st9" width="21" height="9.8"/>
	<path class="st8" d="M-92.4,374.5c0-9.1-7.4-16.5-16.5-16.5H-144c-9.1,0-16.5,7.4-16.5,16.5v80.8c0-9.1,7.4-16.5,16.5-16.5h35.1
		c9.1,0,16.5,7.4,16.5,16.5V374.5z"/>
	<g class="st2">
		<path class="st25" d="M-108.9,426.8H-144c-2.8,0-5-2.2-5-5s2.2-5,5-5h35.1c2.8,0,5,2.2,5,5S-106.1,426.8-108.9,426.8z"/>
	</g>
	<g class="st2">
		<path class="st25" d="M-108.9,412H-144c-2.8,0-5-2.2-5-5c0-2.8,2.2-5,5-5h35.1c2.8,0,5,2.2,5,5C-103.9,409.8-106.1,412-108.9,412z
			"/>
	</g>
	<g class="st2">
		<path class="st25" d="M-108.9,397.3H-144c-2.8,0-5-2.2-5-5s2.2-5,5-5h35.1c2.8,0,5,2.2,5,5S-106.1,397.3-108.9,397.3z"/>
	</g>
	<g class="st2">
		<path class="st25" d="M-108.9,382.6H-144c-2.8,0-5-2.2-5-5s2.2-5,5-5h35.1c2.8,0,5,2.2,5,5S-106.1,382.6-108.9,382.6z"/>
	</g>
	<g class="st2">
		<path class="st13" d="M-24.3,374.5c0-9.1-7.4-16.5-16.5-16.5h-35.1c-9.1,0-16.5,7.4-16.5,16.5v80.8c0-9.1,7.4-16.5,16.5-16.5h35.1
			c9.1,0,16.5,7.4,16.5,16.5V374.5z"/>
	</g>
	<g class="st2">
		<path class="st25" d="M-40.8,426.8h-35.1c-2.8,0-5-2.2-5-5s2.2-5,5-5h35.1c2.8,0,5,2.2,5,5S-38.1,426.8-40.8,426.8z"/>
	</g>
	<g class="st2">
		<path class="st25" d="M-40.8,412h-35.1c-2.8,0-5-2.2-5-5c0-2.8,2.2-5,5-5h35.1c2.8,0,5,2.2,5,5C-35.8,409.8-38.1,412-40.8,412z"/>
	</g>
	<g class="st2">
		<path class="st25" d="M-40.8,397.3h-35.1c-2.8,0-5-2.2-5-5v-14.7c0-2.8,2.2-5,5-5h35.1c2.8,0,5,2.2,5,5v14.7
			C-35.8,395.1-38.1,397.3-40.8,397.3z M-70.9,387.3h25.1v-4.7h-25.1V387.3z"/>
	</g>
</g>
<g id="limbiStraine" class="st0">
	<circle id="circle_12_" class="st1" cx="-68.5" cy="396.5" r="118"/>
	<path class="st17" d="M-15.7,328.8c-0.3,0-0.6,0-1,0h-31.9c-0.3,0-0.6,0-1,0c-7.9,0.5-14.1,7-14.1,15v53.4c0-8.3,6.7-15,15-15v0.1
		h31.9c8.3,0,15-6.7,15-15v-23.4C-1.7,335.8-7.9,329.3-15.7,328.8z"/>
	<path class="st10" d="M-49.6,450.9c0.3,0,0.6,0,1,0h31.9c0.3,0,0.6,0,1,0c7.9-0.5,14.1-7,14.1-15v-53.4c0,8.3-6.7,15-15,15v-0.1
		h-31.9c-8.3,0-15,6.7-15,15v23.4C-63.7,443.9-57.5,450.4-49.6,450.9z"/>
	<path class="st8" d="M-122.7,328.8c0.3,0,0.6,0,1,0h31.9c0.3,0,0.6,0,1,0c7.9,0.5,14.1,7,14.1,15v53.4c0-8.3-6.7-15-15-15v0.1
		h-31.9c-8.3,0-15-6.7-15-15v-23.4C-136.8,335.8-130.6,329.3-122.7,328.8z"/>
	<path class="st6" d="M-91,368.4l-4.6-10.1c0.4-0.6,0.6-1.2,0.6-2c0-1.8-1.4-3.3-3.1-3.5l-5.2-11.5c-0.6-1.2-1.8-2-3.2-2
		s-2.6,0.8-3.2,2l-5.2,11.5c-1.7,0.2-3.1,1.7-3.1,3.5c0,0.7,0.2,1.4,0.6,2l-4.6,10.1c-0.8,1.8,0,3.8,1.7,4.6c1.8,0.8,3.8,0,4.6-1.7
		l5.2-11.4h7.8l5.2,11.4c0.6,1.3,1.9,2,3.2,2c0.5,0,1-0.1,1.5-0.3C-90.9,372.2-90.2,370.1-91,368.4z M-107.2,352.8l0.7-1.6l0.7,1.6
		H-107.2z"/>
	<path class="st14" d="M-18.5,365.3c-1.2,0-6.2-0.3-8.2-5.4h8.1c2.8,0,5-2.2,5-5s-2.2-5-5-5h-8.9V341c0-2.8-2.2-5-5-5s-5,2.2-5,5
		v8.9h-8.9c-2.8,0-5,2.2-5,5s2.2,5,5,5h7.9c-1.9,4.8-6.6,5.4-8.3,5.4c-2.7,0-5,2.3-5,5c0,2.8,2.2,5,5,5c4.5,0,10.2-1.8,14.2-6.3
		c4,4.5,9.7,6.3,14.2,6.3c2.8,0,5-2.2,5-5S-15.7,365.3-18.5,365.3z"/>
	<g class="st2">
		<circle class="st26" cx="-19.3" cy="435.3" r="3.8"/>
		<circle class="st26" cx="-32.7" cy="435.3" r="3.8"/>
		<circle class="st26" cx="-46" cy="435.3" r="3.8"/>
	</g>
</g>
<g id="teatruPapusi" class="st0">
	<circle id="circle_13_" class="st1" cx="-68.5" cy="396.5" r="118"/>
	<rect x="-128.4" y="443.5" class="st7" width="36.9" height="20.2"/>
	<rect x="-47.2" y="443.5" class="st7" width="36.9" height="20.2"/>
	<polygon class="st27" points="-73.2,449.8 -146.6,449.8 -138.7,402.9 -81.1,402.9 	"/>
	<polygon class="st28" points="-65.4,402.9 8,402.9 0.1,449.8 -57.5,449.8 	"/>
	<polygon class="st8" points="-109.9,444.7 -81.1,402.9 -138.7,402.9 	"/>
	<polygon class="st8" points="-28.7,444.7 0.1,402.9 -57.5,402.9 	"/>
	<circle class="st7" cx="-109.9" cy="387.5" r="29.1"/>
	<g class="st2">
		<circle class="st29" cx="-99.3" cy="387.5" r="4.3"/>
		<circle class="st29" cx="-120.5" cy="387.5" r="4.3"/>
	</g>
	<path class="st30" d="M-103.8,339c-3.5-5-9.2-5-12.7,0l-16.1,23c-3.5,5-1.4,9.1,4.7,9.1h35.4c6.1,0,8.2-4.1,4.7-9.1L-103.8,339z"/>
	<g class="st2">
		<path class="st31" d="M-100.7,404.5h-18.4c-0.9,0-1.6-0.7-1.6-1.6c0-0.9,0.7-1.6,1.6-1.6h18.4c0.9,0,1.6,0.7,1.6,1.6
			C-99.1,403.8-99.8,404.5-100.7,404.5z"/>
	</g>
	<path class="st7" d="M-28.7,358.4c-16.1,0-29.1,13-29.1,29.1c0,0.1,0,0.2,0,0.3h-13.1c-2.2,0-4,1.8-4,4s1.8,4,4,4h14.3
		c3.6,12,14.7,20.8,27.9,20.8c16.1,0,29.1-13,29.1-29.1C0.4,371.4-12.6,358.4-28.7,358.4z"/>
	<g class="st2">
		<path class="st31" d="M-48.5,408.8c-0.9,0-1.6-0.7-1.6-1.6s0.7-1.6,1.6-1.6c6.7,0,7.3-5.6,7.3-7.3c0-0.9,0.7-1.6,1.6-1.6
			c0.9,0,1.6,0.7,1.6,1.6C-38,403.6-41.2,408.8-48.5,408.8z"/>
	</g>
	<circle class="st32" cx="-45.5" cy="387.5" r="4.3"/>
	<polygon class="st10" points="-28.7,324.4 -57.5,372.8 0.1,372.8 	"/>
</g>
<g id="jurnalism" class="st0">
	<circle id="circle_14_" class="st1" cx="-68.5" cy="396.5" r="118"/>
	<path class="st17" d="M-44.8,406.1c-25,25-49.6,40.9-54.9,35.6c-5.3-5.3,10.7-29.9,35.6-54.9C-54.8,377.7-35.8,397.1-44.8,406.1z"
		/>
	<path class="st5" d="M-64,386.9c-25,25-40.9,49.6-35.6,54.9l52-52C-52.4,384.9-59.4,382.3-64,386.9z"/>
	<circle class="st33" cx="-27.6" cy="369.7" r="31.6"/>
	<path class="st8" d="M-34.8,426.7c-2.5,2.5-6.5,2.5-8.9,0l-40.9-40.9c-2.5-2.5-2.5-6.5,0-8.9l14.6-14.6c2.5-2.5,6.5-2.5,8.9,0
		l40.9,40.9c2.5,2.5,2.5,6.5,0,8.9L-34.8,426.7z"/>
	<g class="st2">
		<path class="st34" d="M-67.4,369.9l2.9,2.9l-2.6,10.8l0,0l6.7-6.7l2.1,2.1l-9.7,9.7l-2.8-2.8l2.7-11.1l0,0l-6.9,6.9l-2.1-2.1
			L-67.4,369.9z"/>
		<path class="st34" d="M-56.2,381.1l6.6,6.6l-2,2l-4.4-4.4l-1.8,1.8l4.2,4.2l-2,2l-4.2-4.2l-2,2l4.7,4.7l-2,2l-6.8-6.8L-56.2,381.1
			z"/>
		<path class="st34" d="M-48.7,388.6l2.3,2.3l-4.7,7.7l0,0l8.2-4.2l2,2l-4.4,8.4l0,0l8-4.7l2.2,2.2l-12.5,6.8l-1.9-1.9l4.6-8.8l0,0
			l-8.8,4.6l-1.8-1.8L-48.7,388.6z"/>
		<path class="st34" d="M-31.6,410.4c0-0.4,0-0.8-0.2-1.2c-0.2-0.4-0.4-0.7-0.7-1c-0.2-0.2-0.3-0.3-0.5-0.4
			c-0.2-0.1-0.4-0.2-0.6-0.3c-0.2-0.1-0.4-0.1-0.7,0c-0.2,0-0.4,0.1-0.6,0.3c-0.3,0.3-0.4,0.6-0.3,1c0.1,0.4,0.2,0.8,0.4,1.2
			s0.5,0.9,0.7,1.4c0.3,0.5,0.5,1,0.6,1.5c0.1,0.5,0.1,1.1,0,1.6c-0.1,0.6-0.5,1.1-1,1.7c-0.5,0.5-1.1,0.9-1.7,1.1
			c-0.6,0.2-1.2,0.3-1.8,0.2c-0.6-0.1-1.2-0.3-1.8-0.6c-0.6-0.3-1.1-0.7-1.6-1.2c-0.6-0.6-1.1-1.3-1.5-2c-0.3-0.7-0.5-1.5-0.6-2.4
			l3.2-0.2c-0.1,0.5,0,1,0.1,1.5c0.2,0.5,0.4,0.9,0.8,1.3c0.2,0.2,0.4,0.3,0.6,0.5c0.2,0.1,0.4,0.2,0.7,0.3c0.2,0.1,0.4,0.1,0.7,0
			c0.2,0,0.4-0.1,0.6-0.3c0.3-0.3,0.4-0.6,0.4-1c-0.1-0.4-0.2-0.8-0.4-1.3c-0.2-0.5-0.5-0.9-0.7-1.4c-0.3-0.5-0.5-1-0.6-1.6
			c-0.1-0.5-0.2-1.1,0-1.6c0.1-0.6,0.4-1.1,1-1.6c0.5-0.5,1.1-0.9,1.7-1.1c0.6-0.2,1.2-0.2,1.8-0.2c0.6,0.1,1.2,0.3,1.8,0.6
			c0.6,0.3,1.1,0.7,1.6,1.2c0.5,0.5,1,1.1,1.3,1.8c0.4,0.7,0.6,1.4,0.6,2.2L-31.6,410.4z"/>
	</g>
	<g class="st2">
		<path class="st18" d="M-10.5,399.8c-0.6,0-1.3-0.2-1.8-0.7L-57,354.4c-1-1-1-2.6,0-3.6c1-1,2.6-1,3.6,0l44.7,44.7c1,1,1,2.6,0,3.6
			C-9.2,399.6-9.8,399.8-10.5,399.8z"/>
	</g>
	<g class="st2">
		<path class="st35" d="M-116.1,455c-5.1,0-9.8-2-13.4-5.5c-7.4-7.4-7.4-19.4,0-26.8c2.2-2.2,2.2-5.8,0-8c-2.2-2.2-5.8-2.2-8,0
			c-2.6,2.6-6.8,2.6-9.4,0c-2.6-2.6-2.6-6.8,0-9.4c1-1,2.6-1,3.6,0c1,1,1,2.6,0,3.6c-0.6,0.6-0.6,1.6,0,2.2c0.6,0.6,1.6,0.6,2.2,0
			c4.2-4.2,11-4.2,15.2,0c4.2,4.2,4.2,11,0,15.2c-2.6,2.6-4.1,6.1-4.1,9.8c0,3.7,1.4,7.2,4.1,9.8c2.6,2.6,6.1,4.1,9.8,4.1
			s7.2-1.4,9.8-4.1c1-1,2.6-1,3.6,0c1,1,1,2.6,0,3.6C-106.3,453-111,455-116.1,455z"/>
	</g>
</g>
<g id="photo" class="st0">
	<circle id="circle_15_" class="st1" cx="-68.5" cy="396.5" r="118"/>
	<g class="st2">
		<rect x="-102.1" y="338.5" class="st13" width="112.1" height="112.1"/>
		<rect x="-93.8" y="346.8" class="st36" width="95.5" height="78"/>
		<polygon class="st37" points="-73.4,424.7 1.7,424.7 1.7,397.9 -22.4,373.8 		"/>
		<path class="st3" d="M-93.8,425l36.1-36.1l36.1,36.1"/>
		<circle class="st38" cx="-71.1" cy="371.2" r="11.7"/>
	</g>
	<path class="st39" d="M-82.4,399.3c1.8,4.4,2.8,9.1,2.8,14.1c0,5.1-1,10-2.9,14.4l-24.3-24.3l-0.1-0.1c-2.5-2.6-6.1-4.1-10-4.1
		H-82.4z"/>
	<path class="st40" d="M-82.4,399.3h-34.5c-3.8,0-7.3,1.5-9.8,4l24.2-24.2l0-0.1C-93.4,382.8-86.2,390.1-82.4,399.3z"/>
	<path class="st41" d="M-106.8,403.5l24.3,24.3c-3.8,9.1-11.1,16.3-20.3,20.1v-34.5C-102.8,409.5-104.4,406.1-106.8,403.5z"/>
	<path class="st42" d="M-102.6,379l0,0.1l-24.2,24.2c0,0-0.1,0.1-0.1,0.1c-2.5,2.6-4.1,6.1-4.1,10v-34.5c4.4-1.8,9.1-2.8,14.1-2.8
		C-111.8,376.1-107,377.1-102.6,379z"/>
	<path class="st43" d="M-107,423.3c2.5-2.6,4.1-6.1,4.1-10v34.5c-4.3,1.8-9.1,2.8-14.1,2.8c-5.1,0-10-1-14.4-2.9L-107,423.3z"/>
	<path class="st44" d="M-107,423.3l-24.4,24.4c-9.1-3.8-16.3-11.1-20.1-20.3h34.5C-113,427.5-109.5,425.9-107,423.3z"/>
	<path class="st45" d="M-126.9,423.3c2.6,2.5,6.1,4.1,10,4.1h-34.5c-1.8-4.3-2.8-9.1-2.8-14.1c0-5.1,1-9.9,2.8-14.3l0.4,0.2
		L-126.9,423.3z"/>
	<path class="st8" d="M-126.8,403.3l-0.1,0.1C-126.9,403.4-126.8,403.3-126.8,403.3z"/>
	<path class="st46" d="M-126.9,423.3l-24.1-24.1l-0.4-0.2c3.8-9.2,11.1-16.5,20.3-20.2v34.5C-131,417.3-129.4,420.8-126.9,423.3z"/>
</g>
<g id="iT" class="st0">
	<circle id="circle_16_" class="st1" cx="-68.5" cy="396.5" r="118"/>
	<path class="st28" d="M-113.1,444.1c-13.5,0-24.5-11-24.5-24.5v-56c0-13.5,11-24.5,24.5-24.5h85.5c13.5,0,24.5,11,24.5,24.5v56
		c0,13.5-11,24.5-24.5,24.5H-113.1z"/>
	<path class="st41" d="M-27.6,344.6c10.5,0,19,8.5,19,19v56c0,10.5-8.5,19-19,19h-85.5c-10.5,0-19-8.5-19-19v-56
		c0-10.5,8.5-19,19-19H-27.6 M-27.6,333.6h-85.5c-16.5,0-30,13.5-30,30v56c0,16.5,13.5,30,30,30h85.5c16.5,0,30-13.5,30-30v-56
		C2.4,347.1-11.1,333.6-27.6,333.6L-27.6,333.6z"/>
	<g class="st2">
		<path class="st47" d="M-40.1,466.3h-60.6c-3.4,0-6.1-2.7-6.1-6.1c0-3.4,2.7-6.1,6.1-6.1h60.6c3.4,0,6.1,2.7,6.1,6.1
			C-34,463.6-36.7,466.3-40.1,466.3z"/>
	</g>
	<g class="st2">
		<path class="st13" d="M-83.1,402.6l-19.1-7.6V388l25.5,10.6v8l-25.5,10.6v-7L-83.1,402.6z"/>
		<path class="st13" d="M-70.8,421.6v-40.1h10.2v40.1H-70.8z"/>
		<path class="st13" d="M-34.1,389.7v31.9h-10.2v-31.9h-12v-8.2H-22v8.2H-34.1z"/>
	</g>
</g>
<g id="montajFilm" class="st0">
	<circle id="circle_17_" class="st1" cx="-68.5" cy="396.5" r="118"/>
	<path class="st42" d="M-10.6,387.2v50.5c0,7.1-5.7,12.8-12.8,12.8h-93.7c-7.1,0-12.8-5.7-12.8-12.8v-50.5"/>
	<path class="st8" d="M-13.7,358.4l-3.8-16.7c-1.6-6.9-8.5-11.2-15.4-9.6l-91.4,21c-6.9,1.6-11.2,8.5-9.6,15.4l3.8,16.7L-13.7,358.4
		z"/>
	<path class="st2" d="M-130,385.2l13.4-3.1l7.3-32.4l-14.9,3.4c-0.2,0-0.4,0.1-0.5,0.1L-131,381L-130,385.2z"/>
	<polygon class="st2" points="-107.5,380 -92.1,376.5 -84.8,344.1 -100.2,347.6 	"/>
	<polygon class="st2" points="-83,374.4 -67.6,370.8 -60.3,338.5 -75.7,342 	"/>
	<polygon class="st2" points="-58.4,368.7 -43,365.2 -35.7,332.8 -51.1,336.4 	"/>
	<path class="st2" d="M-33.9,363.1l15.4-3.5l2.5-11.1l-1.5-6.6c-1.1-4.9-4.9-8.5-9.4-9.6L-33.9,363.1z"/>
	<circle class="st24" cx="-130" cy="387.2" r="13.6"/>
	<circle class="st15" cx="-130" cy="387.2" r="7.6"/>
	<g class="st2">
		<path class="st48" d="M-82.6,417.9h-28.3c-1.6,0-3-1.3-3-3s1.3-3,3-3h28.3c1.6,0,3,1.3,3,3S-80.9,417.9-82.6,417.9z"/>
	</g>
	<g class="st2">
		<path class="st48" d="M-82.6,406h-28.3c-1.6,0-3-1.3-3-3s1.3-3,3-3h28.3c1.6,0,3,1.3,3,3S-80.9,406-82.6,406z"/>
	</g>
	<g class="st2">
		<path class="st48" d="M-27.7,441.7h-83.1c-1.6,0-3-1.3-3-3s1.3-3,3-3h83.1c1.6,0,3,1.3,3,3S-26.1,441.7-27.7,441.7z"/>
	</g>
	<g class="st2">
		<path class="st48" d="M-27.7,429.8h-83.1c-1.6,0-3-1.3-3-3c0-1.6,1.3-3,3-3h83.1c1.6,0,3,1.3,3,3
			C-24.7,428.5-26.1,429.8-27.7,429.8z"/>
	</g>
	<g class="st2">
		<path class="st48" d="M-27.7,417.9H-56c-1.6,0-3-1.3-3-3v-11.9c0-1.6,1.3-3,3-3h28.3c1.6,0,3,1.3,3,3V415
			C-24.7,416.6-26.1,417.9-27.7,417.9z M-53,412h22.3V406H-53V412z"/>
	</g>
</g>
<g id="yogaKids">
	<circle id="circle_18_" class="st49" cx="-68.5" cy="396.5" r="118"/>
	<path id="XMLID_23_" class="st50" d="M-11.5,418.8c0.7-0.8,1.4-1.6,2-2.4c18.2-15.4,33.6-22.1,33.6-22.1s-15.4-6.7-33.6-22.1
		c-0.6-0.8-1.3-1.6-2-2.4c0-1.1-0.1-2.1-0.3-3.2c2-23.8,8.1-39.4,8.1-39.4s-15.6,6.2-39.4,8.1c-1-0.1-2.1-0.2-3.2-0.3
		c-0.8-0.7-1.6-1.4-2.4-2c-15.4-18.2-22.1-33.6-22.1-33.6s-6.7,15.4-22.1,33.6c-0.8,0.6-1.6,1.3-2.4,2c-1.1,0-2.1,0.1-3.2,0.3
		c-23.8-2-39.4-8.1-39.4-8.1s6.2,15.6,8.1,39.4c-0.1,1-0.2,2.1-0.3,3.2c-0.7,0.8-1.4,1.6-2,2.4c-18.2,15.4-33.6,22.1-33.6,22.1
		s15.4,6.7,33.6,22.1c0.6,0.8,1.3,1.6,2,2.4c0,1.1,0.1,2.1,0.3,3.2c-2,23.8-8.1,39.4-8.1,39.4s15.6-6.2,39.4-8.1
		c1,0.1,2.1,0.2,3.2,0.3c0.8,0.7,1.6,1.4,2.4,2c15.4,18.2,22.1,33.6,22.1,33.6s6.7-15.4,22.1-33.6c0.8-0.6,1.6-1.3,2.4-2
		c1.1,0,2.1-0.1,3.2-0.3c23.8,2,39.4,8.1,39.4,8.1s-6.2-15.6-8.1-39.4C-11.6,420.9-11.5,419.9-11.5,418.8z"/>
	<path id="XMLID_18_" class="st4" d="M-12.3,409.2L-12.3,409.2c-1.2-5.3-3.7-10.4-7.3-14.9c3.7-4.4,6.1-9.5,7.3-14.9l0,0
		c0,0,0-0.1,0-0.1c0.7-3.1,1-6.4,0.9-9.6c-2.2-2.4-4.6-4.4-7.4-6.1c0,0,0,0-0.1-0.1l0,0c-4.6-2.9-10-4.8-15.7-5.4
		c-0.6-5.7-2.4-11.1-5.4-15.7l0,0c0,0,0,0-0.1-0.1c-1.7-2.7-3.8-5.2-6.1-7.4c-3.2-0.1-6.4,0.2-9.6,0.9c0,0-0.1,0-0.1,0l0,0
		c-5.3,1.2-10.4,3.7-14.9,7.3c-4.4-3.7-9.5-6.1-14.9-7.3l0,0c0,0-0.1,0-0.1,0c-3.1-0.7-6.4-1-9.6-0.9c-2.4,2.2-4.4,4.6-6.1,7.4
		c0,0,0,0-0.1,0.1l0,0c-2.9,4.6-4.8,10-5.4,15.7c-5.7,0.6-11.1,2.4-15.7,5.4l0,0c0,0,0,0-0.1,0.1c-2.7,1.7-5.2,3.8-7.4,6.1
		c-0.1,3.2,0.2,6.4,0.9,9.6c0,0,0,0.1,0,0.1l0,0c1.2,5.3,3.7,10.4,7.3,14.9c-3.7,4.4-6.1,9.5-7.3,14.9l0,0c0,0,0,0.1,0,0.1
		c-0.7,3.1-1,6.4-0.9,9.6c2.2,2.4,4.6,4.4,7.4,6.1c0,0,0,0,0.1,0.1l0,0c4.6,2.9,10,4.8,15.7,5.4c0.6,5.7,2.4,11.1,5.4,15.7l0,0
		c0,0,0,0,0.1,0.1c1.7,2.7,3.8,5.2,6.1,7.4c3.2,0.1,6.4-0.2,9.6-0.9c0,0,0.1,0,0.1,0l0,0c5.3-1.2,10.4-3.7,14.9-7.3
		c4.4,3.7,9.5,6.1,14.9,7.3l0,0c0,0,0.1,0,0.1,0c3.1,0.7,6.4,1,9.6,0.9c2.4-2.2,4.4-4.6,6.1-7.4c0,0,0,0,0.1-0.1l0,0
		c2.9-4.6,4.8-10,5.4-15.7c5.7-0.6,11.1-2.4,15.7-5.4l0,0c0,0,0,0,0.1-0.1c2.7-1.7,5.2-3.8,7.4-6.1
		C-11.3,415.6-11.6,412.4-12.3,409.2C-12.3,409.2-12.3,409.2-12.3,409.2z"/>
	<path id="XMLID_17_" class="st34" d="M-19.7,394.3c-0.7-0.9-1.5-1.8-2.3-2.6c-5.3-5.3-11.7-8.5-18.5-9.9c3.8-5.7,6.1-12.6,6.1-20
		c0-1.2-0.1-2.4-0.2-3.5c-1.2-0.1-2.3-0.2-3.5-0.2c-7.4,0-14.3,2.3-20,6.1c-1.3-6.8-4.6-13.2-9.9-18.5c-0.8-0.8-1.7-1.6-2.6-2.3
		c-0.9,0.7-1.8,1.5-2.6,2.3c-5.3,5.3-8.5,11.7-9.9,18.5c-5.7-3.8-12.6-6.1-20-6.1c-1.2,0-2.4,0.1-3.5,0.2c-0.1,1.2-0.2,2.3-0.2,3.5
		c0,7.4,2.3,14.3,6.1,20c-6.8,1.3-13.2,4.6-18.5,9.9c-0.8,0.8-1.6,1.7-2.3,2.6c0.7,0.9,1.5,1.8,2.3,2.6c5.3,5.3,11.7,8.5,18.5,9.9
		c-3.8,5.7-6.1,12.6-6.1,20c0,1.2,0.1,2.4,0.2,3.5c1.2,0.1,2.3,0.2,3.5,0.2c7.4,0,14.3-2.3,20-6.1c1.3,6.8,4.6,13.2,9.9,18.5
		c0.8,0.8,1.7,1.6,2.6,2.3c0.9-0.7,1.8-1.5,2.6-2.3c5.3-5.3,8.5-11.7,9.9-18.5c5.7,3.8,12.6,6.1,20,6.1c1.2,0,2.4-0.1,3.5-0.2
		c0.1-1.2,0.2-2.3,0.2-3.5c0-7.4-2.3-14.3-6.1-20c6.8-1.3,13.2-4.6,18.5-9.9C-21.2,396.1-20.4,395.2-19.7,394.3z"/>
	<path id="XMLID_1_" class="st51" d="M-65.5,410.7c0.9,0.9,0.9,2.3,0,3.2c-1.1,1.1-2.9,1.1-4,0c-1.4-1.4-1.4-3.6,0-5
		c1.7-1.7,4.5-1.7,6.2,0c2.1,2.1,2.1,5.6,0,7.7c-2.7,2.7-7,2.7-9.7,0c-3.3-3.3-3.3-8.8,0-12.1c4.2-4.2,11-4.2,15.1,0
		c5.2,5.2,5.2,13.7,0,18.9c-6.5,6.5-17.7,4.8-23.6-2.3c-3-3.6-5.8-8.5-5.8-17.5s-1.1-12.3-2.5-14.4c-8.3-12.2-16.2-7.7-10.9,1.6
		c1.6,2.9,3.3,9.4,3.3,10.6c0,15.8,0,6.4,0,10.4c0,36.1,55.2,36.8,55.2,0.7c0-6.4-4-15.9,0-25.6s-6.5-16.5-10.1-5.8
		c-3.6,10.7-2.8,14.4-2.8,14.4s0-27.7,0-34.2c0-6.5-10.7-6.5-10.7,0c0,7.4,0,32.6,0,32.6s0-32.6,0-39.7c0-7.3-10.9-7.6-10.9,0
		l0,40.9c0,0,0-25.6,0-33.3c0-7.6-10.6-7.6-10.6,0l0,36.4"/>
	<g id="XMLID_20_">
		<path id="XMLID_19_" class="st52" d="M-73.1,326.3c0.6-0.6,1.5-0.6,2.1,0c0.7,0.7,0.7,1.9,0,2.6c-0.9,0.9-2.4,0.9-3.3,0
			c-1.1-1.1-1.1-3,0-4.1c1.4-1.4,3.7-1.4,5.1,0c1.8,1.8,1.8,4.6,0,6.4c-2.2,2.2-5.8,2.2-8,0c-2.7-2.7-2.7-7.2,0-10
			c3.4-3.4,9-3.4,12.4,0c4.3,4.3,3.2,11.7-1.5,15.6"/>
		<path id="XMLID_16_" class="st52" d="M-68.2,462.3c-0.6,0.6-1.5,0.6-2.1,0c-0.7-0.7-0.7-1.9,0-2.6c0.9-0.9,2.4-0.9,3.3,0
			c1.1,1.1,1.1,3,0,4.1c-1.4,1.4-3.7,1.4-5.1,0c-1.8-1.8-1.8-4.6,0-6.4c2.2-2.2,5.8-2.2,8,0c2.7,2.7,2.7,7.2,0,10
			c-3.4,3.4-9,3.4-12.4,0c-4.3-4.3-3.2-11.7,1.5-15.6"/>
	</g>
	<g id="XMLID_21_">
		<path id="XMLID_24_" class="st52" d="M-2.6,391.8c0.6,0.6,0.6,1.5,0,2.1c-0.7,0.7-1.9,0.7-2.6,0c-0.9-0.9-0.9-2.4,0-3.3
			c1.1-1.1,3-1.1,4.1,0c1.4,1.4,1.4,3.7,0,5.1c-1.8,1.8-4.6,1.8-6.4,0c-2.2-2.2-2.2-5.8,0-8c2.7-2.7,7.2-2.7,10,0
			c3.4,3.4,3.4,9,0,12.4c-4.3,4.3-11.7,3.2-15.6-1.5"/>
		<path id="XMLID_22_" class="st52" d="M-138.7,396.8c-0.6-0.6-0.6-1.5,0-2.1c0.7-0.7,1.9-0.7,2.6,0c0.9,0.9,0.9,2.4,0,3.3
			c-1.1,1.1-3,1.1-4.1,0c-1.4-1.4-1.4-3.7,0-5.1c1.8-1.8,4.6-1.8,6.4,0c2.2,2.2,2.2,5.8,0,8c-2.7,2.7-7.2,2.7-10,0
			c-3.4-3.4-3.4-9,0-12.4c4.3-4.3,11.7-3.2,15.6,1.5"/>
	</g>
	<g id="XMLID_28_">
		<path id="XMLID_30_" class="st52" d="M-24.3,344.5c0.8,0,1.5,0.7,1.5,1.5c0,1-0.8,1.8-1.8,1.8c-1.3,0-2.3-1-2.3-2.3
			c0-1.6,1.3-2.9,2.9-2.9c2,0,3.6,1.6,3.6,3.6c0,2.5-2,4.5-4.5,4.5c-3.1,0-5.6-2.5-5.6-5.6c0-3.9,3.2-7,7-7c4.9,0,8.8,3.9,8.8,8.8
			c0,6.1-6,10.5-12.1,9.9"/>
		<path id="XMLID_29_" class="st52" d="M-117,444.2c-0.8,0-1.5-0.7-1.5-1.5c0-1,0.8-1.8,1.8-1.8c1.3,0,2.3,1,2.3,2.3
			c0,1.6-1.3,2.9-2.9,2.9c-2,0-3.6-1.6-3.6-3.6c0-2.5,2-4.5,4.5-4.5c3.1,0,5.6,2.5,5.6,5.6c0,3.9-3.2,7-7,7c-4.9,0-8.8-3.9-8.8-8.8
			c0-6.1,6-10.5,12.1-9.9"/>
	</g>
	<g id="XMLID_25_">
		<path id="XMLID_27_" class="st52" d="M-20.8,440.6c0,0.8-0.7,1.5-1.5,1.5c-1,0-1.8-0.8-1.8-1.8c0-1.3,1-2.3,2.3-2.3
			c1.6,0,2.9,1.3,2.9,2.9c0,2-1.6,3.6-3.6,3.6c-2.5,0-4.5-2-4.5-4.5c0-3.1,2.5-5.6,5.6-5.6c3.9,0,7,3.2,7,7c0,4.9-3.9,8.8-8.8,8.8
			c-6.1,0-10.5-6-9.9-12.1"/>
		<path id="XMLID_26_" class="st52" d="M-120.5,348c0-0.8,0.7-1.5,1.5-1.5c1,0,1.8,0.8,1.8,1.8c0,1.3-1,2.3-2.3,2.3
			c-1.6,0-2.9-1.3-2.9-2.9c0-2,1.6-3.6,3.6-3.6c2.5,0,4.5,2,4.5,4.5c0,3.1-2.5,5.6-5.6,5.6c-3.9,0-7-3.2-7-7c0-4.9,3.9-8.8,8.8-8.8
			c6.1,0,10.5,6,9.9,12.1"/>
	</g>
</g>
</svg>
