<?xml version="1.0" encoding="utf-8"?>
<!-- Generator: Adobe Illustrator 19.0.0, SVG Export Plug-In . SVG Version: 6.00 Build 0)  -->
<svg version="1.1" id="Layer_1" xmlns="http://www.w3.org/2000/svg" xmlns:xlink="http://www.w3.org/1999/xlink" x="0px" y="0px"
	 viewBox="-187 278 237 237" style="enable-background:new -187 278 237 237;" xml:space="preserve">
<style type="text/css">
	.st0{fill:#FBE9A0;}
	.st1{fill:#2B388F;}
	.st2{fill:#FFFFFF;}
	.st3{fill:#EC1C24;}
	.st4{filter:url(#Adobe_OpacityMaskFilter);}
	.st5{fill:#231F20;}
	.st6{mask:url(#XMLID_2_);fill:#58595B;}
</style>
<circle id="circle_18_" class="st0" cx="-69" cy="396" r="118"/>
<g>
	<path id="XMLID_25_" class="st1" d="M8.5,391.8c-3.8-10.4-22.3-41.7-30.4-41.7s-29.9,8.5-47.4,8.5v62.1c0,0,10.4-2.4,23.2,15.7
		c12.8,18,37.5-7.1,43.2-16.1S12.3,402.3,8.5,391.8z M-38.1,414.6c-11.3,0-8.2-3.6-18-7.2c-2.1-6.2,2.6-14.4,9.8-17
		c7.2-2.6,31.4,4.6,31.4,4.6S-26.8,414.6-38.1,414.6z"/>
	<path id="XMLID_19_" class="st2" d="M-12.2,357.4l-57.1,27.7v26.1l51.2,24.8c6.9-5.1,12.8-11.9,15.3-15.7c0.5-0.7,1-1.5,1.5-2.2
		L-24.3,407c-4.1,4.1-9,7.7-13.8,7.7c-11.3,0-8.2-3.6-18-7.2c-2.1-6.2,2.6-14.4,9.8-17c3.4-1.2,10.8-0.2,17.5,1.2L1.1,377
		C-2.8,370.1-7.7,362.7-12.2,357.4z"/>
	<path id="XMLID_29_" class="st3" d="M-16.4,434.7c1.9-1.5,3.8-3.2,5.5-4.8c0,0,0,0,0,0c0.8-0.8,1.6-1.6,2.4-2.4c0,0,0,0,0,0
		c0.7-0.8,1.4-1.6,2.1-2.3c0,0,0,0,0,0l-25.3-12.3c-2.1,1.1-4.3,1.8-6.4,1.8c-11.3,0-8.2-3.6-18-7.2c-2.1-6.2,2.6-14.4,9.8-17
		c2.9-1,8.6-0.5,14.3,0.5l32.2-15.7c-1.1-1.8-2.2-3.7-3.4-5.6c0,0,0-0.1-0.1-0.1c-1.2-1.8-2.4-3.7-3.6-5.4c0,0,0,0,0,0l-62.3,30.3
		v18.6l4.2-2L-16.4,434.7z"/>
	<path class="st2" d="M-69.2,420.8C-69.2,420.7-69.2,420.7-69.2,420.8c0.1,0,0.1,0,0.1,0c0,0,0,0,0.1,0c0,0,0.1,0,0.1,0
		c0,0,0,0,0.1,0c0.1,0,0.1,0,0.2,0c0,0,0,0,0,0c0.1,0,0.1,0,0.2,0c0,0,0,0,0,0c2.2-0.1,8.8,0.5,17.1,9.2c0,0,0,0,0,0
		c0.3,0.3,0.7,0.7,1,1.1c0,0,0,0,0,0v-20.6c-1.3-0.9-3.1-2-5.9-3c-1.7-5,1-11.2,5.9-14.9v-36.3c-4.7,1-9.6,1.8-14.2,2.2
		c-0.1,0-0.2,0-0.3,0c-0.6,0-1.2,0.1-1.8,0.1c-0.2,0-0.4,0-0.5,0c-0.7,0-1.4,0-2.1,0L-69.2,420.8C-69.3,420.8-69.2,420.8-69.2,420.8
		C-69.2,420.8-69.2,420.8-69.2,420.8z"/>
	<defs>
		<filter id="Adobe_OpacityMaskFilter" filterUnits="userSpaceOnUse" x="-147.9" y="350.1" width="80.4" height="92.7">
			<feFlood  style="flood-color:white;flood-opacity:1" result="back"/>
			<feBlend  in="SourceGraphic" in2="back" mode="normal"/>
		</filter>
	</defs>
	<mask maskUnits="userSpaceOnUse" x="-147.9" y="350.1" width="80.4" height="92.7" id="XMLID_2_">
		<g id="XMLID_38_" class="st4">
			<path id="XMLID_39_" class="st5" d="M-100.4,414.6c11.3,0,8.2-3.6,18-7.2c2.1-6.2-2.6-14.4-9.8-17c-7.2-2.6-22.1,7.2-31.4,4.6
				C-123.5,395.1-111.7,414.6-100.4,414.6z"/>
		</g>
	</mask>
	<path id="XMLID_5_" class="st6" d="M-69.3,358.6c-17.6,0-39.4-8.5-47.4-8.5s-26.6,31.3-30.4,41.7c-3.8,10.4,5.7,19.4,11.4,28.5
		c5.7,9,30.4,34.2,43.2,16.1c12.8-18,23.2-15.7,23.2-15.7l1.8-28L-69.3,358.6z"/>
	<path id="XMLID_20_" class="st3" d="M-58.7,357.8c-3.6,0.5-7.1,0.8-10.5,0.8v62.1c0,0,4.2-0.9,10.5,3V357.8z"/>
	<g id="XMLID_17_">
		<path id="XMLID_27_" class="st2" d="M9.2,394.6C9.2,394.6,9.2,394.6,9.2,394.6l-25.7,0c0.9,0.3,1.5,0.4,1.5,0.4s-8.1,13.4-17.3,18
			H2.2c0,0,0,0,0,0c0.4-0.6,0.9-1.2,1.3-1.8c0.1-0.2,0.3-0.4,0.4-0.6c0.2-0.3,0.4-0.6,0.6-0.9c0-0.1,0.1-0.1,0.1-0.2
			c0.4-0.6,0.8-1.3,1.2-1.9c0.1-0.1,0.1-0.2,0.2-0.3C8.3,403.3,9.9,399.1,9.2,394.6z"/>
		<path id="XMLID_28_" class="st2" d="M-56.1,407.4c-1.4-4.1,0.2-9.1,3.6-12.8h-16.7v18.4h22.6C-49.1,411.7-50.3,409.5-56.1,407.4z"
			/>
	</g>
	<g id="XMLID_18_">
		<path id="XMLID_22_" class="st3" d="M-56.1,407.4c-0.9-2.7-0.5-5.8,0.8-8.7h-13.9V409h16.6C-53.6,408.4-54.7,407.9-56.1,407.4z"/>
		<path id="XMLID_26_" class="st3" d="M-17.4,398.7c-2.1,2.9-5.3,6.9-9,10.2H5c0.2-0.4,0.5-0.8,0.7-1.2c0-0.1,0.1-0.1,0.1-0.2
			c0.7-1.2,1.3-2.4,1.9-3.6c0,0,0-0.1,0-0.1c0.7-1.7,1.3-3.4,1.5-5.2c0,0,0,0,0,0H-17.4z"/>
	</g>
</g>
</svg>
