<?xml version="1.0" encoding="utf-8"?>
<!-- Generator: Adobe Illustrator 19.0.0, SVG Export Plug-In . SVG Version: 6.00 Build 0)  -->
<svg version="1.1" id="ikebana" xmlns="http://www.w3.org/2000/svg" xmlns:xlink="http://www.w3.org/1999/xlink" x="0px" y="0px"
	 viewBox="-187 278 237 237" style="enable-background:new -187 278 237 237;" xml:space="preserve">
<style type="text/css">
	.st0{fill:#FEEBA4;}
	.st1{fill:none;stroke:#EC1C24;stroke-width:7.4339;stroke-linecap:round;stroke-linejoin:round;stroke-miterlimit:10;}
	.st2{fill:#EC1C24;}
	.st3{fill:#00ADEE;}
	.st4{fill:#F6921E;}
	.st5{fill:#1B75BB;}
	.st6{fill:#37B34A;}
	.st7{fill:#FFDD15;}
	.st8{fill:#6B5DA7;}
	.st9{fill:none;stroke:#37B34A;stroke-width:4;stroke-linecap:round;stroke-linejoin:round;stroke-miterlimit:10;}
</style>
<circle id="circle_18_" class="st0" cx="-68.5" cy="396.5" r="118"/>
<g id="XMLID_3_">
	
		<rect id="XMLID_23_" x="-55.7" y="374.9" transform="matrix(0.7895 0.6138 -0.6138 0.7895 239.245 102.8986)" class="st1" width="50.6" height="50.6"/>
	
		<rect id="XMLID_25_" x="-23.6" y="374.8" transform="matrix(0.7895 0.6138 -0.6138 0.7895 245.976 83.1798)" class="st1" width="50.6" height="50.6"/>
	<polygon id="XMLID_24_" class="st1" points="-25.9,435.7 -65.9,404.7 -33.8,404.6 6.2,435.7 	"/>
	<polygon id="XMLID_26_" class="st1" points="5.2,395.8 -34.8,364.7 -2.7,364.6 37.3,395.7 	"/>
</g>
<g id="planet">
	<path id="XMLID_52_" class="st2" d="M-44,396c0,1.3,0,2.6-0.1,3.8c-7,5.4-27.1,17.7-65.9,17.7s-58.9-12.3-65.9-17.7
		c-0.1-1.3-0.1-2.5-0.1-3.8c0-9.2,1.9-17.9,5.3-25.8c8.4,5.9,27.4,15.8,60.7,15.8c33.4,0,52.4-9.9,60.7-15.8
		C-45.9,378.1-44,386.8-44,396z"/>
	<path id="XMLID_51_" class="st3" d="M-44.1,399.8c-0.4,7.7-2.2,15-5,21.8c-6.1,5.2-24.6,17.9-60.8,17.9
		c-36.2,0-54.7-12.7-60.8-17.9c-2.9-6.8-4.6-14.1-5.1-21.8c7,5.4,27.1,17.7,65.9,17.7S-51.1,405.2-44.1,399.8z"/>
	<path id="XMLID_50_" class="st4" d="M-49.3,370.2c-8.4,5.9-27.4,15.8-60.7,15.8c-33.4,0-52.4-9.9-60.7-15.8
		c4.1-9.8,10.6-18.3,18.6-25c6.3,5,19.6,12.4,42.1,12.4c22.5,0,35.8-7.5,42.1-12.4C-59.8,351.8-53.4,360.4-49.3,370.2z"/>
	<path id="XMLID_49_" class="st5" d="M-110,439.5c36.3,0,54.8-12.7,60.8-17.9c-3.2,7.6-7.8,14.5-13.5,20.3
		c-7.9,5.9-23,13.7-47.4,13.7s-39.5-7.8-47.4-13.7c-5.7-5.8-10.3-12.7-13.5-20.3C-164.7,426.9-146.2,439.5-110,439.5z"/>
	<path id="XMLID_48_" class="st6" d="M-62.6,441.9c-12,12.4-28.8,20-47.4,20s-35.4-7.7-47.4-20c7.9,5.9,23,13.7,47.4,13.7
		S-70.5,447.8-62.6,441.9z"/>
	<path id="XMLID_47_" class="st7" d="M-67.9,345.2c-6.3,5-19.6,12.4-42.1,12.4c-22.5,0-35.8-7.4-42.1-12.4
		c11.4-9.5,26.1-15.2,42.1-15.2S-79.3,335.7-67.9,345.2z"/>
</g>
<polygon id="XMLID_8_" class="st8" points="-59.9,306 -48,316.1 -34.7,307.8 -40.6,322.3 -28.7,332.4 -44.3,331.2 -50.2,345.7 
	-53.9,330.5 -69.5,329.4 -56.2,321.1 "/>
<path id="XMLID_11_" class="st9" d="M-50.1,447.3c13.6,2.1,22.9,14.8,20.9,28.3c-1.6,10.9-11.7,18.3-22.6,16.6
	c-8.7-1.3-14.7-9.5-13.4-18.1c1-6.9,7.5-11.7,14.4-10.6c5.6,0.9,9.4,6.1,8.6,11.6c-0.7,4.4-4.8,7.5-9.2,6.8c-3.6-0.5-6-3.9-5.5-7.4
	c0.4-2.8,3.1-4.8,5.9-4.4c2.3,0.3,3.8,2.5,3.5,4.8"/>
</svg>
