<?xml version="1.0" encoding="utf-8"?>
<!-- Generator: Adobe Illustrator 19.0.0, SVG Export Plug-In . SVG Version: 6.00 Build 0)  -->
<svg version="1.1" id="pasaport" xmlns="http://www.w3.org/2000/svg" xmlns:xlink="http://www.w3.org/1999/xlink" x="0px" y="0px"
	 viewBox="0 0 236 236" style="enable-background:new 0 0 236 236;" xml:space="preserve">
<style type="text/css">
	.st0{fill:#FDEAA2;}
	.st1{fill:#E6E7E8;}
	.st2{fill:#9E1F63;}
	.st3{fill:#FFFFFF;}
	.st4{fill:#FAAF65;}
	.st5{fill:#FDD5A8;}
	.st6{fill:#FBBC78;}
	.st7{fill:#716558;}
	.st8{fill:#EC2024;}
	.st9{fill:#FDDFC1;}
	.st10{fill:#929497;}
	.st11{fill:#D0D2D3;}
	.st12{fill:#FAAF40;}
	.st13{fill:#F16522;}
</style>
<circle id="circle_18_" class="st0" cx="118" cy="118" r="118"/>
<path id="XMLID_122_" class="st1" d="M141.7,191.1H52.3c-7.1,0-12.8-5.8-12.8-12.8v-50.3c0-7.1,5.8-12.8,12.8-12.8h89.4
	c7.1,0,12.8,5.8,12.8,12.8v50.3C154.5,185.3,148.7,191.1,141.7,191.1z"/>
<path id="XMLID_121_" class="st2" d="M141.7,115.1H52.3c-7.1,0-12.8-5.8-12.8-12.8V52c0-7.1,5.8-12.8,12.8-12.8h89.4
	c7.1,0,12.8,5.8,12.8,12.8v50.3C154.5,109.3,148.7,115.1,141.7,115.1z"/>
<rect id="XMLID_120_" x="48.8" y="132.5" class="st3" width="31.2" height="37.9"/>
<rect id="XMLID_119_" x="60.4" y="164.6" class="st4" width="4.6" height="5.8"/>
<circle id="XMLID_118_" class="st5" cx="53.2" cy="151.1" r="2.1"/>
<path id="XMLID_115_" class="st6" d="M53.2,154.1c-1.6,0-2.9-1.3-2.9-2.9c0-1.6,1.3-2.9,2.9-2.9c1.6,0,2.9,1.3,2.9,2.9
	C56.1,152.8,54.8,154.1,53.2,154.1z M53.2,149.9c-0.7,0-1.2,0.5-1.2,1.2s0.5,1.2,1.2,1.2c0.7,0,1.2-0.5,1.2-1.2
	S53.9,149.9,53.2,149.9z"/>
<circle id="XMLID_113_" class="st5" cx="72.6" cy="151.1" r="2.1"/>
<path id="XMLID_110_" class="st6" d="M72.6,154.1c-1.6,0-2.9-1.3-2.9-2.9c0-1.6,1.3-2.9,2.9-2.9s2.9,1.3,2.9,2.9
	C75.5,152.8,74.2,154.1,72.6,154.1z M72.6,149.9c-0.7,0-1.2,0.5-1.2,1.2s0.5,1.2,1.2,1.2s1.2-0.5,1.2-1.2S73.3,149.9,72.6,149.9z"/>
<path id="XMLID_108_" class="st6" d="M72.6,140.5c0-5.4-19.4-5.4-19.4,0c0,4.3,0,12.2,0,16.5c0,5.4,4.3,9.7,9.7,9.7s9.7-4.3,9.7-9.7
	C72.6,152.6,72.6,144.8,72.6,140.5z"/>
<path id="XMLID_107_" class="st7" d="M52.2,136.3v9.7l5.1,1.2l0-6c0,0,16.3,3.1,20.3-4.9H52.2z"/>
<circle id="XMLID_106_" class="st3" cx="59.9" cy="148.6" r="2.1"/>
<circle id="XMLID_105_" cx="59.9" cy="148.6" r="1"/>
<path id="XMLID_26_" class="st8" d="M64,160.7h-3.3c-1.6,0-3-1.3-3-3h2c0,0.5,0.4,1,1,1H64V160.7z"/>
<path id="XMLID_103_" class="st9" d="M66.8,151.5c0,1.4-1.1,2.5-2.5,2.5c-1.4,0-2.5-1.1-2.5-2.5"/>
<circle id="XMLID_102_" class="st3" cx="67.7" cy="148.6" r="2.1"/>
<circle id="XMLID_101_" cx="67.7" cy="148.6" r="1"/>
<path id="XMLID_28_" class="st3" d="M54.3,70.9c3.2,0,5,1.6,5,4.4c0,2.9-1.8,4.6-5,4.6h-2.3v3.5h-3.2V70.9H54.3z M52.1,77.3h2.1
	c1.4,0,2.2-0.7,2.2-2c0-1.3-0.8-2-2.2-2h-2.1V77.3z"/>
<path id="XMLID_32_" class="st3" d="M63,81.1L62,83.4h-3.3l5.4-12.5h3.3l5.3,12.5h-3.4l-0.9-2.3H63z M65.7,74l-1.8,4.6h3.6L65.7,74z
	"/>
<path id="XMLID_35_" class="st3" d="M83.6,72.1l-1.2,2.5c-1.3-0.8-3-1.3-4-1.3c-0.8,0-1.4,0.3-1.4,0.9c0,2.2,6.6,0.9,6.6,5.5
	c0,2.5-2.2,3.8-5,3.8c-2.1,0-4.2-0.8-5.7-2l1.2-2.4c1.3,1.1,3.2,1.9,4.5,1.9c1,0,1.6-0.4,1.6-1.1c0-2.2-6.6-0.9-6.6-5.3
	c0-2.3,2-3.8,5-3.8C80.4,70.7,82.3,71.3,83.6,72.1z"/>
<path id="XMLID_37_" class="st3" d="M95.1,72.1l-1.2,2.5c-1.3-0.8-3-1.3-4-1.3c-0.8,0-1.4,0.3-1.4,0.9c0,2.2,6.6,0.9,6.6,5.5
	c0,2.5-2.2,3.8-5,3.8c-2.1,0-4.2-0.8-5.7-2l1.2-2.4c1.3,1.1,3.2,1.9,4.5,1.9c1,0,1.6-0.4,1.6-1.1c0-2.2-6.6-0.9-6.6-5.3
	c0-2.3,2-3.8,5-3.8C92,70.7,93.8,71.3,95.1,72.1z"/>
<path id="XMLID_57_" class="st3" d="M102.3,70.9c3.2,0,5,1.6,5,4.4c0,2.9-1.8,4.6-5,4.6H100v3.5h-3.2V70.9H102.3z M100,77.3h2.1
	c1.4,0,2.2-0.7,2.2-2c0-1.3-0.8-2-2.2-2H100V77.3z"/>
<path id="XMLID_60_" class="st3" d="M121.7,77.1c0,3.6-2.9,6.4-6.8,6.4c-3.9,0-6.8-2.8-6.8-6.4c0-3.6,2.9-6.3,6.8-6.3
	C118.8,70.7,121.7,73.5,121.7,77.1z M111.5,77.1c0,2.1,1.6,3.7,3.5,3.7c1.9,0,3.5-1.6,3.5-3.7c0-2.1-1.5-3.7-3.5-3.7
	S111.5,75,111.5,77.1z"/>
<path id="XMLID_63_" class="st3" d="M129.1,79.8L129.1,79.8h-2.5v3.5h-3.2V70.9h5.6c3.3,0,5.2,1.6,5.2,4.4c0,1.9-0.8,3.3-2.3,4
	l2.6,4.1H131L129.1,79.8z M129,77.3c1.4,0,2.2-0.7,2.2-2c0-1.3-0.8-2-2.2-2h-2.4v4H129z"/>
<path id="XMLID_66_" class="st3" d="M142.2,73.4v10H139v-10h-3.7v-2.6h10.7v2.6H142.2z"/>
<rect id="XMLID_25_" x="87.9" y="133" class="st10" width="50.7" height="3"/>
<rect id="XMLID_24_" x="87.9" y="139.9" class="st11" width="50.7" height="3"/>
<rect id="XMLID_23_" x="87.9" y="146.8" class="st11" width="50.7" height="3"/>
<rect id="XMLID_20_" x="87.9" y="158.6" class="st10" width="50.7" height="3"/>
<rect id="XMLID_11_" x="87.9" y="165.5" class="st11" width="37.4" height="3"/>
<rect id="XMLID_2_" x="87.9" y="172.3" class="st11" width="37.4" height="3"/>
<rect id="XMLID_139_" x="152.5" y="100.3" class="st12" width="8.2" height="83.6"/>
<path id="XMLID_135_" class="st12" d="M201.2,115.5c-3.9,21.1-22.4,37.1-44.6,37.1c-22.2,0-40.7-16-44.6-37.1H201.2 M210.2,107.3
	H103c0,29.6,24,53.6,53.6,53.6S210.2,136.9,210.2,107.3L210.2,107.3z"/>
<path id="XMLID_134_" class="st13" d="M123.1,100.3V138c0,18.5,15,33.4,33.4,33.4c18.5,0,33.4-15,33.4-33.4v-37.7H123.1z"/>
<path id="XMLID_133_" class="st13" d="M184.4,191.3v0.7c0-9-12.4-16.3-27.8-16.3c-15.4,0-27.8,7.3-27.8,16.3v-0.7H184.4z"/>
<polygon id="XMLID_1_" class="st3" points="156.6,112.8 160.6,125.2 173.8,125.2 163.2,132.9 167.2,145.4 156.6,137.7 146,145.4 
	150,132.9 139.4,125.2 152.5,125.2 "/>
</svg>
