<?xml version="1.0" encoding="utf-8"?>
<!-- Generator: Adobe Illustrator 21.0.0, SVG Export Plug-In . SVG Version: 6.00 Build 0)  -->
<svg version="1.1" id="ikebana" xmlns="http://www.w3.org/2000/svg" xmlns:xlink="http://www.w3.org/1999/xlink" x="0px" y="0px"
	 viewBox="0 0 237 237" style="enable-background:new 0 0 237 237;" xml:space="preserve">
<style type="text/css">
	.st0{fill:#FEEBA4;}
	.st1{fill:#00ADEF;}
	.st2{fill:#FFFFFF;}
	.st3{fill:#EF3E24;}
	.st4{fill:#069447;}
</style>
<circle id="circle_18_" class="st0" cx="118.5" cy="118.5" r="118"/>
<circle class="st1" cx="155" cy="137.9" r="6.2"/>
<circle class="st1" cx="155" cy="176.1" r="6.2"/>
<path class="st2" d="M103.2,72.7H91V60.5c0-3.6-2.9-6.5-6.5-6.5S78,56.9,78,60.5v12.2H65.8c-3.6,0-6.5,2.9-6.5,6.5s2.9,6.5,6.5,6.5
	H78V98c0,3.6,2.9,6.5,6.5,6.5S91,101.6,91,98V85.7h12.2c3.6,0,6.5-2.9,6.5-6.5S106.8,72.7,103.2,72.7z"/>
<path class="st3" d="M93.7,159.2l10.5-10.5c2.5-2.5,2.5-6.7,0-9.2c-2.5-2.5-6.7-2.5-9.2,0l-10.5,10.5L74,139.5
	c-2.5-2.5-6.7-2.5-9.2,0c-2.5,2.5-2.5,6.7,0,9.2l10.5,10.5l-10.5,10.5c-2.5,2.5-2.5,6.7,0,9.2c1.3,1.3,2.9,1.9,4.6,1.9
	s3.3-0.6,4.6-1.9l10.5-10.5L95,179c1.3,1.3,2.9,1.9,4.6,1.9s3.3-0.6,4.6-1.9c2.5-2.5,2.5-6.7,0-9.2L93.7,159.2z"/>
<path class="st4" d="M172.7,85.2h-35.4c-3.3,0-6-2.7-6-6s2.7-6,6-6h35.4c3.3,0,6,2.7,6,6S176,85.2,172.7,85.2z"/>
<path class="st1" d="M172.7,163h-35.4c-3.3,0-6-2.7-6-6s2.7-6,6-6h35.4c3.3,0,6,2.7,6,6S176,163,172.7,163z"/>
</svg>
