<?xml version="1.0" encoding="utf-8"?>
<!-- Generator: Adobe Illustrator 19.0.0, SVG Export Plug-In . SVG Version: 6.00 Build 0)  -->
<svg version="1.1" id="Layer_1" xmlns="http://www.w3.org/2000/svg" xmlns:xlink="http://www.w3.org/1999/xlink" x="0px" y="0px"
	 viewBox="-187 278 237 237" style="enable-background:new -187 278 237 237;" xml:space="preserve">
<style type="text/css">
	.st0{fill:#FBE9A0;}
	.st1{fill:#FFFFFF;}
	.st2{fill:#2B388F;}
	.st3{fill:#EC1C24;}
	.st4{fill:#231F20;}
	.st5{fill:#404041;}
</style>
<circle id="circle_18_" class="st0" cx="-69" cy="396" r="118"/>
<path id="XMLID_14_" class="st1" d="M-74.1,328.8"/>
<rect id="XMLID_145_" x="-125.5" y="417.4" class="st2" width="119.1" height="32.5"/>
<g id="XMLID_2_">
	<polygon id="XMLID_18_" class="st1" points="-89.5,417.4 -125.5,440.9 -125.5,449.9 -111.7,449.9 -66,420 -20.2,449.9 -6.4,449.9 
		-6.4,440.9 -42.4,417.4 	"/>
</g>
<g id="XMLID_3_">
	<polygon id="XMLID_4_" class="st3" points="-81.2,417.4 -125.5,446.3 -125.5,449.9 -115.7,449.9 -65.9,417.4 	"/>
	<polygon id="XMLID_15_" class="st3" points="-61.7,417.4 -11.9,449.9 -6.4,449.9 -6.4,443.5 -46.4,417.4 	"/>
</g>
<rect id="XMLID_104_" x="-125.5" y="365.3" class="st4" width="119.1" height="45.3"/>
<g id="XMLID_110_">
	<path class="st5" d="M-44.8,363.3h-6c0-4.4-0.1-6.9-1.4-8.2c-1.7-1.7-6.2-2.5-13.8-2.5c-7.6,0-12.1,0.8-13.8,2.5
		c-1.3,1.3-1.4,3.9-1.4,8.2h-6c0-11.6,2-16.7,21.2-16.7C-46.8,346.6-44.8,351.7-44.8,363.3z"/>
</g>
<g>
	<path class="st5" d="M-98.6,401.9c-4.4,0-7.9,3.5-7.9,7.9c0,0.3,0.1,0.5,0.2,0.8h-0.2v3.7h15.8v-3.7h-0.2c0.1-0.2,0.2-0.5,0.2-0.8
		C-90.7,405.4-94.2,401.9-98.6,401.9z"/>
	<path class="st5" d="M-25.8,409.8c0-4.4-3.5-7.9-7.9-7.9c-4.4,0-7.9,3.5-7.9,7.9c0,0.3,0.1,0.5,0.2,0.8h-0.2v3.7h15.8v-3.7H-26
		C-25.9,410.4-25.8,410.1-25.8,409.8z"/>
</g>
<rect id="XMLID_141_" x="-75.7" y="417.3" class="st1" width="19.5" height="32.6"/>
<rect id="XMLID_17_" x="-71.4" y="417.4" class="st3" width="10.8" height="32.5"/>
</svg>
