<?xml version="1.0" encoding="utf-8"?>
<!-- Generator: Adobe Illustrator 19.0.0, SVG Export Plug-In . SVG Version: 6.00 Build 0)  -->
<svg version="1.1" id="Layer_1" xmlns="http://www.w3.org/2000/svg" xmlns:xlink="http://www.w3.org/1999/xlink" x="0px" y="0px"
	 viewBox="0 0 237 237" style="enable-background:new 0 0 237 237;" xml:space="preserve">
<style type="text/css">
	.st0{fill:#FBE9A0;}
	.st1{fill:#FFFFFF;}
	.st2{fill:#F06624;}
</style>
<circle id="circle_18_" class="st0" cx="118" cy="118" r="118"/>
<g id="XMLID_53_">
	<g id="XMLID_58_">
		<path id="XMLID_57_" d="M37.3,157.2h0.5h0.7c-7.4,0-13.5,6-13.5,13.5h69.8c0-7.4-6-13.5-13.5-13.5h0.7h0.5"/>
	</g>
	<path id="XMLID_63_" d="M52,83l-6.5-4.6c0,0-0.4,5.2,0,9.3c0.4,4.2-20.8,24.6-20.8,24.6l4.2,6.3c0,0,1.4,0.2,6-2
		c5.6-1.6,20.8,4.3,22.2-5.2c0,19.8-18.9,32.3-18.9,32.3v15.5H80c0,0,6.7-15.7,6.7-22.8C86.4,77.1,52,83,52,83z M49.5,98.9
		c-1.3,0-2.4-1.1-2.4-2.4s1.1-2.4,2.4-2.4c1.3,0,2.4,1.1,2.4,2.4S50.8,98.9,49.5,98.9z"/>
</g>
<g id="XMLID_1_">
	<g id="XMLID_6_">
		<path id="XMLID_8_" class="st1" d="M198.7,157.7h-0.5h-0.7c7.4,0,13.5,6,13.5,13.5h-69.8c0-7.4,6-13.5,13.5-13.5h-0.7h-0.5"/>
	</g>
	<path id="XMLID_2_" class="st1" d="M149.2,137.1c0,7.1,6.7,22.8,6.7,22.8h41.9v-15.5c0,0-18.9-12.5-18.9-32.3
		c1.4,9.4,16.7,3.6,22.2,5.2c4.6,2.2,6,2,6,2l4.2-6.3c0,0-21.2-20.4-20.8-24.6c0.4-4.2,0-9.3,0-9.3l-6.5,4.6
		C184,83.5,149.6,77.6,149.2,137.1z M184.2,97c0-1.3,1.1-2.4,2.4-2.4c1.3,0,2.4,1.1,2.4,2.4c0,1.3-1.1,2.4-2.4,2.4
		C185.2,99.4,184.2,98.4,184.2,97z"/>
</g>
<path id="XMLID_14_" class="st1" d="M112.9,50.8"/>
<path id="XMLID_24_" class="st2" d="M130,111.4c0.5-0.5,1-1,1.5-1.5c9.1-3.1,17.5-9.4,24.2-18.3c6.8-9,11.7-20.2,14.2-32.5
	c0.2-1-0.1-2.1-0.7-2.8c-0.7-0.8-1.6-1.3-2.7-1.3h-19.8c0-0.1,0-0.1,0-0.2c0-1.9-1.5-3.4-3.4-3.4H92.7c-1.9,0-3.4,1.5-3.4,3.4
	c0,0.1,0,0.1,0,0.2H69.4c-1,0-2,0.5-2.7,1.3c-0.7,0.8-0.9,1.8-0.7,2.8c2.4,12.3,7.3,23.5,14.2,32.5c6.7,8.8,15.1,15.1,24.2,18.3
	c0.4,0.4,0.7,0.8,1.1,1.2c2.7,2.7,5.7,5.7,5.7,12.8v10.7H93.7c-1.9,0-3.4,1.5-3.4,3.4v28.8h-7.5c-1.9,0-3.4,1.5-3.4,3.4v10.9
	c0,1.9,1.5,3.4,3.4,3.4h70.6c1.9,0,3.4-1.5,3.4-3.4v-10.9c0-1.9-1.5-3.4-3.4-3.4h-7.5V138c0-1.9-1.5-3.4-3.4-3.4h-17.7v-12.3
	C124.7,116.4,127.4,113.9,130,111.4z M149.8,177.7H86.2v-4.1h7.5h48.7h7.5V177.7z M138.9,166.8H97.1v-25.4h17.7h6.5h17.7V166.8z
	 M162.3,61.9c-4.1,16.3-12.7,29.5-23.7,36.9c4.5-9.8,7.3-22.8,8.1-36.9H162.3z M73.7,61.9h15.7C90.1,76.1,93,89,97.5,98.8
	C86.4,91.4,77.8,78.2,73.7,61.9z M110.5,106.2c-0.6-0.6-1.1-1.1-1.4-1.5c-3.8-4.5-7-11.3-9.3-19.9c-2.2-8-3.4-17.2-3.7-26.6h43.7
	c-0.2,9.5-1.5,18.6-3.7,26.6c-2.3,8.5-5.5,15.4-9.3,19.9c-0.4,0.5-1,1-1.7,1.7c-2.7,2.6-6.7,6.3-7.4,13.6
	C116.9,112.6,112.9,108.7,110.5,106.2z"/>
</svg>
