<?xml version="1.0" encoding="utf-8"?>
<!-- Generator: Adobe Illustrator 19.0.0, SVG Export Plug-In . SVG Version: 6.00 Build 0)  -->
<svg version="1.1" id="pixel" xmlns="http://www.w3.org/2000/svg" xmlns:xlink="http://www.w3.org/1999/xlink" x="0px" y="0px"
	 viewBox="0 0 237 237" style="enable-background:new 0 0 237 237;" xml:space="preserve">
<style type="text/css">
	.st0{fill:#FEEBA4;}
	.st1{fill:#414042;}
	.st2{fill:#EE3C6F;}
	.st3{fill:#F387AF;}
	.st4{fill:#F8C1D9;}
	.st5{fill:#FFFFFF;}
</style>
<circle id="circle_18_" class="st0" cx="119" cy="119" r="118.5"/>
<g id="New_Symbol_19_">
	<rect id="XMLID_2_" x="112.8" y="82.3" class="st1" width="12.2" height="12.2"/>
</g>
<g id="New_Symbol_18_">
	<rect id="XMLID_18_" x="112.8" y="180.2" class="st1" width="12.2" height="12.2"/>
</g>
<g id="New_Symbol_17_">
	<rect id="XMLID_17_" x="137.4" y="57.9" class="st1" width="36.6" height="12.2"/>
</g>
<g id="New_Symbol_16_">
	<rect id="XMLID_22_" x="125.1" y="70.1" class="st1" width="12.2" height="12.2"/>
</g>
<g id="New_Symbol_3_17_">
	<rect id="XMLID_16_" x="112.8" y="94.6" class="st2" width="12.2" height="12.2"/>
</g>
<g id="New_Symbol_3_16_">
	<rect id="XMLID_5_" x="137.4" y="70.1" class="st2" width="12.2" height="12.2"/>
</g>
<g id="New_Symbol_3_15_">
	<rect id="XMLID_50_" x="161.9" y="70.1" class="st2" width="12.2" height="12.2"/>
</g>
<g id="New_Symbol_3_14_">
	<rect id="XMLID_23_" x="174" y="82.3" class="st2" width="12.2" height="36.7"/>
</g>
<g id="New_Symbol_4_10_">
	<rect id="XMLID_37_" x="149.6" y="70.1" class="st3" width="12.2" height="12.2"/>
</g>
<g id="New_Symbol_5_7_">
	<rect id="XMLID_67_" x="149.6" y="82.3" class="st4" width="12.2" height="36.7"/>
</g>
<g id="New_Symbol_5_6_">
	<rect id="XMLID_69_" x="137.4" y="106.8" class="st4" width="12.2" height="24.5"/>
</g>
<g id="New_Symbol_5_5_">
	<rect id="XMLID_43_" x="125.1" y="94.6" class="st4" width="12.2" height="48.9"/>
</g>
<g id="New_Symbol_6_1_">
	<rect id="XMLID_6_" x="137.4" y="82.3" class="st5" width="12.2" height="24.5"/>
</g>
<g id="New_Symbol_3_13_">
	<rect id="XMLID_15_" x="125.1" y="82.3" class="st2" width="12.2" height="12.2"/>
</g>
<g id="New_Symbol_15_">
	<rect id="XMLID_14_" x="174" y="70.1" class="st1" width="12.2" height="12.2"/>
</g>
<g id="New_Symbol_14_">
	<rect id="XMLID_11_" x="186.3" y="82.3" class="st1" width="12.2" height="36.7"/>
</g>
<g id="New_Symbol_13_">
	<rect id="XMLID_10_" x="174" y="119" class="st1" width="12.2" height="12.2"/>
</g>
<g id="New_Symbol_12_">
	<rect id="XMLID_9_" x="161.9" y="131.3" class="st1" width="12.2" height="12.2"/>
</g>
<g id="New_Symbol_11_">
	<rect id="XMLID_8_" x="149.6" y="143.5" class="st1" width="12.2" height="12.2"/>
</g>
<g id="New_Symbol_10_">
	<rect id="XMLID_7_" x="137.2" y="155.7" class="st1" width="12.2" height="12.2"/>
</g>
<g id="New_Symbol_9_">
	<rect id="XMLID_57_" x="125.1" y="168" class="st1" width="12.2" height="12.2"/>
</g>
<g id="New_Symbol_3_12_">
	<rect id="XMLID_56_" x="161.9" y="119" class="st2" width="12.2" height="12.2"/>
</g>
<g id="New_Symbol_3_11_">
	<rect id="XMLID_55_" x="149.6" y="131.3" class="st2" width="12.2" height="12.2"/>
</g>
<g id="New_Symbol_3_10_">
	<rect id="XMLID_54_" x="137.4" y="143.5" class="st2" width="12.2" height="12.2"/>
</g>
<g id="New_Symbol_3_9_">
	<rect id="XMLID_62_" x="125.1" y="155.7" class="st2" width="12.2" height="12.2"/>
</g>
<g id="New_Symbol_4_9_">
	<rect id="XMLID_61_" x="161.9" y="82.3" class="st3" width="12.2" height="36.7"/>
</g>
<g id="New_Symbol_4_8_">
	<rect id="XMLID_60_" x="149.6" y="119" class="st3" width="12.2" height="12.2"/>
</g>
<g id="New_Symbol_4_7_">
	<rect id="XMLID_59_" x="137.4" y="131.3" class="st3" width="12.2" height="12.2"/>
</g>
<g id="New_Symbol_4_6_">
	<rect id="XMLID_68_" x="125.1" y="143.5" class="st3" width="12.2" height="12.2"/>
</g>
<g id="New_Symbol_8_">
	<rect id="XMLID_66_" x="64" y="57.9" class="st1" width="36.6" height="12.2"/>
</g>
<g id="New_Symbol_7_">
	<rect id="XMLID_65_" x="100.6" y="70.1" class="st1" width="12.2" height="12.2"/>
</g>
<g id="New_Symbol_3_8_">
	<rect id="XMLID_64_" x="88.4" y="70.1" class="st2" width="12.2" height="12.2"/>
</g>
<g id="New_Symbol_3_7_">
	<rect id="XMLID_63_" x="64" y="70.1" class="st2" width="12.2" height="12.2"/>
</g>
<g id="New_Symbol_3_6_">
	<rect id="XMLID_58_" x="51.7" y="82.3" class="st2" width="12.2" height="36.7"/>
</g>
<g id="New_Symbol_4_5_">
	<rect id="XMLID_53_" x="76.2" y="70.1" class="st3" width="12.2" height="12.2"/>
</g>
<g id="New_Symbol_4_4_">
	<rect id="XMLID_52_" x="64" y="82.3" class="st3" width="12.2" height="36.7"/>
</g>
<g id="New_Symbol_6">
	<rect id="XMLID_51_" x="76.2" y="82.3" class="st5" width="24.4" height="24.5"/>
</g>
<g id="New_Symbol_5_4_">
	<rect id="XMLID_49_" x="76.2" y="106.8" class="st4" width="12.2" height="12.2"/>
</g>
<g id="New_Symbol_5_3_">
	<rect id="XMLID_47_" x="76.2" y="106.8" class="st4" width="85.6" height="12.2"/>
</g>
<g id="New_Symbol_5_2_">
	<rect id="XMLID_45_" x="100.6" y="94.6" class="st4" width="12.2" height="48.9"/>
</g>
<g id="New_Symbol_3_5_">
	<rect id="XMLID_44_" x="100.6" y="82.3" class="st2" width="12.2" height="12.2"/>
</g>
<g id="New_Symbol_6_">
	<rect id="XMLID_42_" x="51.7" y="70.1" class="st1" width="12.2" height="12.2"/>
</g>
<g id="New_Symbol_5_">
	<rect id="XMLID_40_" x="39.5" y="82.3" class="st1" width="12.2" height="36.7"/>
</g>
<g id="New_Symbol_4_">
	<rect id="XMLID_35_" x="51.7" y="119" class="st1" width="12.2" height="12.2"/>
</g>
<g id="New_Symbol_3_">
	<rect id="XMLID_34_" x="64" y="131.3" class="st1" width="12.2" height="12.2"/>
</g>
<g id="New_Symbol_2_">
	<rect id="XMLID_33_" x="76.2" y="143.5" class="st1" width="12.2" height="12.2"/>
</g>
<g id="New_Symbol_1_">
	<rect id="XMLID_32_" x="88.5" y="155.7" class="st1" width="12.2" height="12.2"/>
</g>
<g id="New_Symbol">
	<rect id="XMLID_31_" x="100.6" y="168" class="st1" width="12.2" height="12.2"/>
</g>
<g id="New_Symbol_3_4_">
	<rect id="XMLID_30_" x="64" y="119" class="st2" width="12.2" height="12.2"/>
</g>
<g id="New_Symbol_3_3_">
	<rect id="XMLID_29_" x="76.2" y="131.3" class="st2" width="12.2" height="12.2"/>
</g>
<g id="New_Symbol_3_2_">
	<rect id="XMLID_27_" x="88.4" y="143.5" class="st2" width="12.2" height="12.2"/>
</g>
<g id="New_Symbol_3_1_">
	<rect id="XMLID_26_" x="100.6" y="155.7" class="st2" width="12.2" height="12.2"/>
</g>
<g id="New_Symbol_4_3_">
	<rect id="XMLID_25_" x="76.2" y="119" class="st3" width="12.2" height="12.2"/>
</g>
<g id="New_Symbol_4_2_">
	<rect id="XMLID_19_" x="88.4" y="131.3" class="st3" width="12.2" height="12.2"/>
</g>
<g id="New_Symbol_4_1_">
	<rect id="XMLID_3_" x="100.6" y="143.5" class="st3" width="12.2" height="12.2"/>
</g>
<g id="New_Symbol_5_1_">
	<rect id="XMLID_21_" x="88.5" y="119" class="st4" width="61.4" height="12.2"/>
</g>
<g id="New_Symbol_5">
	<rect id="XMLID_20_" x="112.8" y="106.8" class="st4" width="12.2" height="48.9"/>
</g>
<g id="New_Symbol_4">
	<rect id="XMLID_13_" x="112.8" y="155.7" class="st3" width="12.2" height="12.2"/>
</g>
<g id="New_Symbol_3">
	<rect id="XMLID_12_" x="112.8" y="168" class="st2" width="12.2" height="12.2"/>
</g>
</svg>
